<svg width="101" height="27" viewBox="0 0 101 27" fill="none" xmlns="http://www.w3.org/2000/svg">
<path d="M24.8165 7.2809L24.2624 6.31324C24.0761 5.98899 23.6344 5.93026 23.3688 6.19324L22.105 7.45707C21.9135 7.64856 21.8854 7.94726 22.0335 8.17194C22.4956 8.87917 22.8659 9.64002 23.1339 10.4392H23.1365C23.4786 11.4528 23.6573 12.5277 23.6573 13.6102C23.6573 19.0843 19.202 23.5396 13.728 23.5396C12.0812 23.5396 10.4982 23.1439 9.07351 22.3856L11.2156 20.2434C12.0148 20.5473 12.8676 20.703 13.728 20.703C17.6395 20.703 20.8207 17.5217 20.8207 13.6102C20.8207 13.3651 20.8054 13.12 20.7799 12.8775C20.6956 12.0553 20.4684 11.2587 20.111 10.5209C19.9399 10.1685 19.4752 10.0894 19.1969 10.3651L17.9127 11.6494C17.7748 11.7873 17.7161 11.989 17.762 12.1804L17.8693 12.64C17.9433 12.9617 17.9816 13.2885 17.9816 13.6128C17.9816 15.9592 16.0718 17.869 13.7254 17.869C12.9876 17.869 12.2573 17.6749 11.619 17.3098L11.0548 16.9856C10.8327 16.8579 10.5518 16.8962 10.3705 17.0775L5.13907 22.309C4.89651 22.5515 4.92204 22.9524 5.19524 23.1592L5.9663 23.749C8.21053 25.4698 10.8939 26.3787 13.7254 26.3787C20.7646 26.3787 26.4914 20.6519 26.4914 13.6128C26.4914 11.3915 25.9118 9.20087 24.8114 7.2809H24.8165Z" fill="white"/>
<path d="M21.4898 3.47671C19.2455 1.75586 16.5621 0.846924 13.7307 0.846924C6.69153 0.846924 0.964722 6.57373 0.964722 13.6129C0.964722 15.8367 1.5443 18.0248 2.64472 19.9448L3.19877 20.9125C3.38515 21.2367 3.82685 21.2954 4.09238 21.0325L5.35621 19.7686C5.5477 19.5771 5.57579 19.2784 5.4277 19.0537C4.96557 18.3465 4.59536 17.5857 4.32728 16.7865H4.32472C3.9826 15.7729 3.80387 14.698 3.80387 13.6154C3.80132 8.13885 8.25661 3.68352 13.7307 3.68352C15.3775 3.68352 16.9604 4.07926 18.3851 4.83756L16.243 6.97969C15.4438 6.67586 14.5911 6.52011 13.7307 6.52011C9.81916 6.52011 6.63791 9.7014 6.63791 13.6129C6.63791 13.7303 6.66855 14.2691 6.67877 14.361C6.76557 15.1754 6.99281 15.9695 7.3477 16.7023C7.51877 17.0546 7.98345 17.1337 8.26172 16.858L9.54342 15.5763C9.68129 15.4384 9.74001 15.2367 9.69406 15.0452L9.58682 14.5857C9.51278 14.264 9.47448 13.9371 9.47448 13.6129C9.47448 11.2665 11.3843 9.35672 13.7307 9.35672C14.4685 9.35672 15.1987 9.55077 15.837 9.91587L16.4013 10.2401C16.6234 10.3678 16.9043 10.3295 17.0855 10.1482L22.317 4.91671C22.5596 4.67416 22.5341 4.2733 22.2609 4.0665L21.4898 3.47671Z" fill="white"/>
<path d="M42.9928 17.1336C42.8013 16.9728 42.5384 16.9804 42.3213 17.149C41.4992 17.7847 40.5494 18.3745 39.1579 18.3745C36.6124 18.3745 34.5418 16.2298 34.5418 13.5924C34.5418 10.9549 36.6047 8.79235 39.1401 8.79235C40.243 8.79235 41.4303 9.25448 42.306 10.023C42.4643 10.1813 42.6098 10.2068 42.7043 10.2017C42.7911 10.1966 42.9162 10.1583 43.0311 10.0153L43.8584 9.16257C43.9656 9.05278 44.0243 8.91235 44.0192 8.76682C44.0141 8.62129 43.9477 8.48342 43.8303 8.37618C42.3877 7.11749 40.935 6.55579 39.1196 6.55579C35.2439 6.55579 32.0907 9.72937 32.0907 13.6281C32.0907 17.5268 35.2439 20.6621 39.1196 20.6621C40.9426 20.6621 42.5818 20.0034 43.8584 18.7575C43.9681 18.6477 44.0294 18.4894 44.0243 18.3336C44.0192 18.1983 43.9656 18.0783 43.8762 17.9992L42.9928 17.1285V17.1336Z" fill="white"/>
<path d="M49.0184 6.74988H47.7648C47.4814 6.74988 47.2338 7.00009 47.2338 7.2835V19.9422C47.2338 20.2256 47.4814 20.4758 47.7648 20.4758H49.0184C49.3018 20.4758 49.5495 20.2256 49.5495 19.9422V7.2835C49.5495 7.00009 49.3018 6.74988 49.0184 6.74988Z" fill="white"/>
<path d="M63.8571 11.0137C63.8571 8.66222 61.9218 6.74988 59.5448 6.74988H54.3771C54.0835 6.74988 53.8461 6.98988 53.8461 7.2835V19.9422C53.8461 20.2358 54.0861 20.4758 54.3771 20.4758H55.6129C55.8963 20.4758 56.1439 20.2256 56.1439 19.9422V15.2367H58.7354L61.2146 20.2078C61.2784 20.3354 61.4495 20.4733 61.6716 20.4733H63.1525C63.3567 20.4733 63.5278 20.3814 63.6222 20.2205C63.7193 20.0571 63.7218 19.8452 63.6248 19.6665L61.1099 14.9737C62.8078 14.218 63.8546 12.7141 63.8546 11.0086L63.8571 11.0137ZM61.5388 11.052C61.5388 12.2443 60.5559 13.2529 59.3916 13.2529H56.1797V8.94562H59.3916C60.5559 8.94562 61.5388 9.90818 61.5388 11.0495V11.052Z" fill="white"/>
<path d="M77.3589 17.1336C77.1674 16.9728 76.9043 16.9804 76.6873 17.149C75.8653 17.7847 74.9149 18.3745 73.5234 18.3745C70.9781 18.3745 68.9075 16.2298 68.9075 13.5924C68.9075 10.9549 70.9705 8.79235 73.5057 8.79235C74.6086 8.79235 75.7958 9.25448 76.6717 10.023C76.8298 10.1813 76.9759 10.2068 77.0703 10.2017C77.1568 10.1966 77.2823 10.1583 77.3972 10.0153L78.2242 9.16257C78.3312 9.05278 78.3901 8.91235 78.3851 8.76682C78.3802 8.62129 78.3135 8.48342 78.1958 8.37618C76.7532 7.11749 75.3007 6.55579 73.4851 6.55579C69.6096 6.55579 66.4564 9.72937 66.4564 13.6281C66.4564 17.5268 69.6096 20.6621 73.4851 20.6621C75.3085 20.6621 76.9476 20.0034 78.2242 18.7575C78.3341 18.6477 78.3951 18.4894 78.3901 18.3336C78.3851 18.1983 78.3312 18.0783 78.2419 17.9992L77.3589 17.1285V17.1336Z" fill="white"/>
<path d="M88.8966 18.3567H83.9207V7.2835C83.9207 7.00009 83.6725 6.74988 83.3895 6.74988H82.1356C81.842 6.74988 81.6044 6.98988 81.6044 7.2835V19.9422C81.6044 20.2358 81.8448 20.4758 82.1356 20.4758H88.8994C89.193 20.4758 89.4327 20.2358 89.4327 19.9422V18.8903C89.4327 18.5967 89.193 18.3567 88.8994 18.3567H88.8966Z" fill="white"/>
<path d="M100.161 8.88948C100.455 8.88948 100.692 8.64948 100.692 8.35587V7.28606C100.692 6.99244 100.453 6.75244 100.161 6.75244H92.5604C92.2668 6.75244 92.0292 6.99244 92.0292 7.28606V19.9448C92.0292 20.2384 92.2696 20.4784 92.5604 20.4784H100.161C100.455 20.4784 100.692 20.2384 100.692 19.9448V18.8929C100.692 18.5993 100.453 18.3593 100.161 18.3593H94.3299V14.5908H99.232C99.5256 14.5908 99.7632 14.3508 99.7632 14.0571V12.9874C99.7632 12.704 99.515 12.4537 99.232 12.4537H94.3299V8.89459H100.161V8.88948Z" fill="white"/>
</svg>
