<svg width="101" height="33" viewBox="0 0 101 33" fill="none" xmlns="http://www.w3.org/2000/svg">
<path d="M8.47011 8.36036H9.61618V25.7228C9.61618 29.5671 6.60967 32.1612 0.825073 32.1612V28.5103C3.30888 28.5103 4.54982 27.4856 4.54982 25.4022V8.36036H8.47011ZM5.10544 5.54062C4.84161 5.28836 4.63194 4.98691 4.48878 4.65404C4.34563 4.32114 4.27187 3.96354 4.27187 3.60229C4.27187 3.24103 4.34563 2.88343 4.48878 2.55054C4.63194 2.21764 4.84161 1.91621 5.10544 1.66395C5.36279 1.40535 5.67034 1.19985 6.00997 1.05953C6.34961 0.919212 6.71444 0.846924 7.08301 0.846924C7.45158 0.846924 7.81642 0.919212 8.15603 1.05953C8.49567 1.19985 8.80321 1.40535 9.06057 1.66395C9.32441 1.91621 9.53408 2.21764 9.67723 2.55054C9.82039 2.88343 9.89413 3.24103 9.89413 3.60229C9.89413 3.96354 9.82039 4.32114 9.67723 4.65404C9.53408 4.98691 9.32441 5.28836 9.06057 5.54062C8.80321 5.79922 8.49567 6.00473 8.15603 6.14504C7.81642 6.28536 7.45158 6.35764 7.08301 6.35764C6.71444 6.35764 6.34961 6.28536 6.00997 6.14504C5.67034 6.00473 5.36279 5.79922 5.10544 5.54062Z" fill="white"/>
<path d="M24.2843 8.3595H29.3507V24.7921H24.2843V22.3899C23.5173 23.2634 22.5633 23.9606 21.4903 24.4319C20.4172 24.9032 19.2514 25.137 18.0758 25.1167C14.2832 25.1167 11.7665 22.8111 11.7665 18.4867V8.36329H16.8348V16.5968C16.8348 19.4429 17.9789 20.8889 20.3002 20.8889C22.5226 20.8889 24.2863 19.1906 24.2863 15.8263L24.2843 8.3595Z" fill="white"/>
<path d="M60.9623 14.6812V24.8026H55.8979V16.4098C55.8979 13.6547 54.8189 12.2776 52.6609 12.2789C50.5701 12.2789 48.7716 14.0076 48.7716 17.3397V24.8026H43.7051V16.4098C43.7051 13.6547 42.627 12.2776 40.4703 12.2789C38.3795 12.2789 36.581 14.0076 36.581 17.3397V24.8026H31.5145V8.36997H36.581V10.74C38.2479 8.94681 40.209 8.04928 42.5301 8.04928C45.4708 8.04928 47.37 9.17072 48.2489 11.4136C50.0481 9.1644 52.2053 8.03979 54.7208 8.03979C58.6101 8.03979 60.9623 10.0891 60.9623 14.6812Z" fill="white"/>
<path d="M79.7963 10.2817C81.4302 11.8187 82.2472 13.9002 82.2472 16.5606C82.2472 19.2209 81.4302 21.3045 79.7963 22.8073C78.1624 24.3443 76.1025 25.1129 73.5858 25.1129C71.3634 25.1129 69.5655 24.4082 68.1923 22.999V31.8416H63.1278V8.35949H68.1923V10.1261C69.5655 8.71813 71.3634 8.0135 73.5858 8.01224C76.1025 8.00655 78.1624 8.77506 79.7963 10.2817ZM76.9525 16.5606C76.9525 13.6138 75.09 11.6593 72.5734 11.6593C70.0894 11.6593 68.1923 13.517 68.1923 16.5606C68.1923 19.6043 70.0894 21.462 72.5734 21.462C75.09 21.462 76.9525 19.5076 76.9525 16.5606Z" fill="white"/>
<path d="M100.216 20.2499V24.1306H84.3793V20.2499H100.216Z" fill="white"/>
</svg>
