<svg width="101" height="22" viewBox="0 0 101 22" fill="none" xmlns="http://www.w3.org/2000/svg">
<path d="M16.2544 16.1466L5.2444 16.8296C4.17827 16.8395 3.39604 16.3564 3.37818 15.6834V15.6642L4.83144 0.991856C4.8202 0.915091 4.66865 0.850896 4.4893 0.846924C2.6244 1.40679 0.560974 2.07585 0.216187 2.27571L0.601343 18.4755C0.618549 19.1769 1.50997 19.9241 3.43111 19.9088L16.3557 20.1888C16.4722 20.1884 16.5845 20.1454 16.6714 20.0677C16.6865 20.0546 16.6969 20.037 16.7011 20.0173L16.6111 16.2988C16.6106 16.2624 16.4788 16.1466 16.2544 16.1466Z" fill="white"/>
<path d="M20.3613 2.70246C20.3613 2.62438 20.2059 2.54033 19.9591 2.53967L17.4171 3.14719H17.3993C17.253 3.14719 17.1114 3.19219 17.0472 3.25837C17.0387 3.26527 17.0318 3.27394 17.0271 3.28377C17.0222 3.2936 17.0196 3.30435 17.0194 3.31529L17.7474 18.715C17.7526 18.7585 17.9188 18.8883 18.1444 18.8883L20.1596 18.8685C20.2965 18.876 20.4315 18.8324 20.5382 18.746C20.5535 18.7336 20.5639 18.7164 20.5679 18.697L20.3613 2.70246Z" fill="white"/>
<path d="M33.3521 9.12183H33.327L28.5934 9.60691C27.5769 9.61618 26.7469 9.90075 26.2559 10.4077C26.0948 10.5716 25.9692 10.767 25.887 10.9816C25.8046 11.1962 25.7673 11.4255 25.7774 11.6551L25.7967 12.5029C25.7967 12.5882 25.9476 12.7186 26.1209 12.7193L27.8925 12.7007C27.9995 12.6986 28.1016 12.6554 28.1777 12.5803C28.2049 12.5559 28.2225 12.5226 28.2274 12.4863L28.2188 12.1356C28.2094 11.7756 28.3108 11.4837 28.5192 11.2686C28.784 10.9973 29.208 10.857 29.7885 10.8524L30.539 10.8458H30.562C31.5547 10.8458 32.2033 11.3355 32.2232 12.0972L32.235 12.6551C32.2363 12.806 32.207 12.9557 32.1488 13.095C32.0908 13.2343 32.0051 13.3604 31.8969 13.4657C31.5899 13.7827 31.1094 13.9753 30.6117 13.9813L28.6958 13.9972C27.6715 14.0051 26.8429 14.2831 26.3612 14.7794C26.1986 14.9465 26.0723 15.1453 25.9899 15.3633C25.9075 15.5813 25.8708 15.8139 25.8821 16.0467L25.9171 17.4464C25.941 18.4701 27.0659 19.6964 28.4319 19.6964H28.4464L33.1305 19.4318C33.499 19.4327 33.8641 19.3609 34.2049 19.2205C34.5455 19.0799 34.8551 18.8736 35.1159 18.6131C35.4971 18.22 35.7009 17.7488 35.6896 17.2895V17.2816L35.869 10.943C35.8431 9.89942 34.7638 9.12183 33.3521 9.12183ZM33.6084 17.4907C33.3065 17.8031 32.8366 17.9778 32.2847 17.9831L31.1756 17.995H31.1624C30.1638 17.995 29.4563 17.4656 29.4417 16.6992V16.5146C29.4317 16.1268 29.5436 15.7999 29.7647 15.5715C30.0108 15.3168 30.3814 15.1851 30.8666 15.1811L32.2563 15.1765H32.2735C33.4032 15.1765 33.9227 15.8257 33.9359 16.4716L33.9404 16.6569C33.9446 16.8111 33.9173 16.9646 33.8603 17.108C33.8032 17.2513 33.7174 17.3816 33.6084 17.4907Z" fill="white"/>
<path d="M57.6353 8.16419C57.3077 7.68572 56.726 7.11726 55.8327 7.12322L51.0513 7.16557C50.0652 7.17351 49.3769 7.67184 48.9732 8.08876C48.3591 8.72275 47.9886 9.59762 48.0063 10.3719L48.0295 11.2871C48.0295 11.3851 48.1896 11.5346 48.3949 11.5346L49.5966 11.5254C49.7163 11.5218 49.83 11.4728 49.9149 11.3884C49.9475 11.36 49.9678 11.3202 49.9719 11.2772L49.9645 10.8941C49.956 10.5076 50.0638 10.1945 50.2861 9.96755C50.5675 9.67703 51.0274 9.52614 51.6529 9.51886L53.1888 9.50761C54.2708 9.49701 54.9757 10.0238 54.9994 10.8504L55.0119 11.4539C55.014 11.6164 54.983 11.7776 54.9208 11.9277C54.8588 12.0779 54.7668 12.2139 54.6506 12.3274C54.3198 12.6696 53.801 12.8767 53.2609 12.8807L51.1868 12.8999C50.2955 12.9058 49.6827 13.0945 49.3128 13.4756C48.9706 13.829 48.8205 14.3545 48.8396 15.1301L48.876 16.6522C48.9077 17.9757 49.5894 18.6375 50.9057 18.6264H50.9137L56.0093 19.0703C56.9358 19.0603 57.7618 18.746 58.2846 18.21C58.632 17.8513 58.814 17.4245 58.802 16.9738L58.2785 10.0966C58.2449 9.40576 58.0224 8.73738 57.6353 8.16419ZM56.0285 16.9063C55.826 17.1148 55.5163 17.2174 55.0814 17.22L53.8804 17.2339H53.8558C52.7858 17.2339 52.0274 16.6648 52.0069 15.8442L52.0022 15.6397C51.9971 15.4749 52.0257 15.3108 52.086 15.1573C52.1462 15.0038 52.237 14.8642 52.353 14.7469C52.6839 14.4081 53.1987 14.2175 53.809 14.2129L55.0412 14.2056H55.0677C56.2753 14.2056 56.2966 14.9772 56.3131 15.5953L56.3184 15.7939C56.3302 16.1883 56.2999 16.6244 56.0285 16.9063Z" fill="white"/>
<path d="M69.8344 4.37085H69.8219L64.7487 4.41256C64.5693 4.41116 64.3914 4.44663 64.2262 4.51676C64.0611 4.58688 63.912 4.69017 63.7884 4.82021C63.3914 5.23184 63.1815 5.92141 63.2008 6.76254L63.2829 10.1244C63.3172 11.5459 63.9665 12.4591 64.9419 12.4519L69.5485 12.4115C69.9125 12.4115 70.2764 12.2361 70.5769 11.9277C70.986 11.5049 71.2128 10.8921 71.1984 10.2448V10.2309L71.4512 6.52494C71.4214 5.31454 70.7132 4.37085 69.8344 4.37085ZM68.4897 9.02583C68.2151 9.31172 67.7769 9.51355 67.4236 9.51686L66.1245 9.52811H66.1158C65.5388 9.52811 65.1695 9.047 65.151 8.27075L65.1318 7.38395C65.1205 6.95975 65.2264 6.61893 65.4388 6.39921C65.5181 6.31796 65.6128 6.25364 65.7177 6.21019C65.8224 6.16672 65.935 6.14503 66.0484 6.14642L67.8147 6.12789H67.8186C68.3712 6.12789 68.7843 6.66592 68.8027 7.40909L68.8172 8.235C68.8189 8.38212 68.7909 8.52808 68.7346 8.664C68.6783 8.79994 68.5949 8.92303 68.4897 9.02583Z" fill="white"/>
<path d="M85.6831 16.1056C85.6755 16.0611 85.6519 16.021 85.6169 15.9924C85.5206 15.9042 85.3967 15.8519 85.2662 15.8442H85.2596L79.4863 15.8945C78.9767 15.8813 78.7431 15.6185 78.692 15.377C78.6305 15.0845 78.81 14.792 79.1493 14.6318L84.9222 11.8801C85.3549 11.6611 85.568 11.2647 85.5528 10.7055L85.4753 7.43297C85.4668 7.16826 85.3317 7.16826 85.2596 7.16826H85.2464L72.8532 6.20007C72.6957 6.20471 72.5389 6.33772 72.5396 6.46479V6.47539V6.48598L72.0868 10.0305C72.0974 10.1582 72.2641 10.2879 72.4178 10.2859L82.0626 10.2032C82.435 10.1986 82.719 10.37 82.7831 10.6386C82.8316 10.8418 82.7455 11.1257 82.3603 11.3137L82.3504 11.3183L76.0105 13.8814C75.5671 14.0845 75.4283 14.3446 75.4415 14.9528L75.7108 18.6184C75.7108 18.7541 75.8894 18.9076 76.0417 18.9076L85.335 18.8269C85.4607 18.8137 85.5776 18.7571 85.6659 18.6666C85.7046 18.6325 85.7295 18.5855 85.7361 18.5344L85.6831 16.1056Z" fill="white"/>
<path d="M13.0195 6.07028H13.0129L8.58553 5.71887C7.37778 5.73079 6.39703 6.03588 5.89407 6.55669C5.76958 6.67931 5.6717 6.82626 5.60656 6.98842C5.54142 7.15056 5.51045 7.32439 5.51553 7.49906V7.51032L4.76111 13.6827C4.79154 14.8177 5.3812 15.3498 6.79278 15.5179L13.263 14.8759C14.713 14.8064 16.1616 14.1744 16.1305 12.9197L16.1894 7.79554C16.1603 6.73471 14.9201 6.05441 13.0195 6.07028ZM13.9843 12.0667C13.9838 12.1939 13.9579 12.3197 13.9083 12.4369C13.8586 12.554 13.7862 12.6601 13.6951 12.749C13.3702 13.0852 12.8249 13.2784 12.1995 13.2857L11.3577 13.2956H11.324C9.88262 13.2956 9.56696 12.751 9.55769 12.291L9.48754 9.35403C9.48262 9.22725 9.50355 9.10079 9.54907 8.98236C9.59458 8.86392 9.6637 8.756 9.75226 8.66513C10.0474 8.36004 10.5616 8.19593 11.2393 8.19063L12.5344 8.17805C13.5932 8.16945 14.261 8.60358 14.2769 9.30903V9.31896L13.9843 12.0667Z" fill="white"/>
<path d="M24.7768 6.29667C24.7768 6.21592 24.6134 6.12923 24.3546 6.13055H24.3485L21.9661 5.9585C21.8245 5.9585 21.6829 6.00681 21.6202 6.07165C21.6121 6.07796 21.6057 6.086 21.6013 6.09519C21.597 6.10437 21.5947 6.11444 21.5949 6.12459L21.5658 19.9783C21.5731 20.0201 21.7358 20.1424 21.955 20.1424L24.5107 20.1192C24.648 20.1272 24.7832 20.0835 24.89 19.9969C24.9048 19.9847 24.9153 19.968 24.9198 19.9492L24.7768 6.29667Z" fill="white"/>
<path d="M61.8621 4.0578L58.9471 4.08029C58.846 4.08073 58.7467 4.1074 58.6591 4.15773C58.6356 4.1694 58.615 4.18653 58.5994 4.20771C58.5837 4.22888 58.5734 4.2535 58.5692 4.27949L59.8074 18.6322C59.8074 18.6911 59.9814 18.834 60.2004 18.8307L62.2149 18.8115C62.35 18.8181 62.4828 18.7726 62.5854 18.6845C62.6077 18.6648 62.622 18.6378 62.6258 18.6084L62.2858 4.25567C62.2811 4.13919 62.103 4.05515 61.8621 4.0578Z" fill="white"/>
<path d="M71.1398 13.1587L67.2591 13.1925C65.9144 13.2031 64.8767 13.4836 64.4133 13.9621C64.3351 14.0367 64.2729 14.1266 64.2309 14.2262C64.1888 14.3258 64.1675 14.433 64.1686 14.5412V14.5518L63.7172 18.4219C63.7569 19.4979 65.248 19.8672 66.6363 19.8533L71.8703 19.8109C72.9252 19.8003 74.6982 19.5853 74.7398 18.271L74.2905 14.4836C74.0562 13.577 73.0212 13.1435 71.1398 13.1587ZM71.8975 17.404C71.8313 18.1876 71.006 18.1982 70.2767 18.2061L68.5562 18.2194H68.3093C67.8461 18.2194 67.4987 18.1916 67.2823 17.9778C67.1499 17.8488 67.0837 17.6681 67.0837 17.4252V17.4067L67.0877 17.3888L67.5231 15.5199C67.5259 15.3724 67.586 15.2317 67.6905 15.1275C67.9977 14.8099 68.6368 14.7371 69.1199 14.7305L70.2767 14.7199H70.3158C71.726 14.7199 71.8471 15.3155 71.8504 15.4975L71.8956 17.3915L71.8975 17.404Z" fill="white"/>
<path d="M44.2331 5.91878H44.2225L32.503 5.2312C32.4922 5.23216 32.4816 5.2353 32.472 5.2404C32.4622 5.24552 32.4537 5.25253 32.4467 5.26097C32.3805 5.32716 32.3415 5.47275 32.3448 5.62958L32.3978 7.91009C32.4032 8.1523 32.4805 8.33495 32.5784 8.34289L36.1488 7.92002C36.36 7.92002 36.5631 8.06495 36.6967 8.32303L36.7152 8.3581L36.5208 21.4919C36.526 21.6049 36.6882 21.6943 36.8821 21.6903L38.9897 21.6711C39.1434 21.6711 39.2664 21.6333 39.326 21.5718C39.3387 21.5591 39.3488 21.544 39.3556 21.5272C39.3622 21.5105 39.3655 21.4926 39.365 21.4746L38.9143 17.5952C38.9133 17.5141 38.9289 17.4337 38.9601 17.3588C38.9913 17.2839 39.0375 17.2162 39.0957 17.1598C39.2943 16.9613 39.6251 16.8368 39.9871 16.8335H39.9945L44.8756 17.2544C45.7472 17.2471 46.7028 17.1717 47.1958 16.6681C47.4652 16.3928 47.5929 16.0063 47.585 15.4802L47.4103 8.06164C47.3779 6.80359 46.0424 5.90291 44.2331 5.91878ZM45.1066 14.8416C44.8208 15.138 44.3661 15.3048 43.8267 15.3101L42.623 15.3194H42.5925C41.5925 15.3194 40.8309 14.7853 40.8162 14.0679L40.7131 9.76638C40.7112 9.62913 40.7371 9.49293 40.7892 9.36599C40.8415 9.23904 40.9188 9.12401 41.0168 9.02782C41.3357 8.69693 41.864 8.50503 42.4648 8.49841L43.6687 8.48648C44.6441 8.48052 45.3072 8.9762 45.323 9.72138L45.4249 14.0183C45.4309 14.17 45.4056 14.3213 45.3509 14.4628C45.2962 14.6044 45.2131 14.7333 45.1066 14.8416Z" fill="white"/>
<path d="M100.028 18.2405L99.7855 16.5238C99.7661 16.3577 99.7139 16.2287 99.6464 16.1757C99.628 16.1599 99.6044 16.1514 99.5802 16.1519C98.7862 16.3603 97.4208 16.6628 97.1396 16.3776C97.0609 16.2948 96.9325 16.1605 97.0025 12.5935C97.0356 10.9066 97.0999 9.22967 97.1039 9.12709C97.0727 7.84191 95.875 6.88432 94.3198 6.89822L89.367 7.14043C88.9759 7.14357 88.5896 7.22594 88.2313 7.38258C87.8731 7.5392 87.5503 7.76683 87.2823 8.05171C86.6604 8.69561 86.301 9.58704 86.322 10.4341L86.3419 11.4559C86.3459 11.5883 86.52 11.7497 86.7072 11.7458L88.4517 11.7292C88.5642 11.7253 88.6707 11.6778 88.7489 11.5968C88.7949 11.5557 88.8233 11.4983 88.8276 11.4367L88.8144 10.941C88.8038 10.4361 88.7952 10.0364 89.0454 9.77894C89.224 9.59563 89.516 9.50894 89.9632 9.50629L91.4985 9.48907H91.5165C92.5846 9.48907 93.2888 10.0701 93.3132 10.9721L93.3257 11.6432C93.3323 11.8834 93.2722 12.0634 93.1431 12.1925C92.8982 12.4373 92.4714 12.4274 91.9771 12.4148C91.8646 12.4148 91.7487 12.4095 91.6302 12.4095H91.564L89.4867 12.4267C88.428 12.4353 87.5564 12.7417 87.0269 13.287C86.614 13.7132 86.4135 14.2645 86.4313 14.9249L86.4691 16.6158C86.4982 17.8381 87.7212 18.8241 89.2003 18.8241H89.2268L94.3085 18.7792H94.3827L99.9078 18.6137C99.9321 18.6086 99.9536 18.5941 99.9673 18.5734C100.026 18.4731 100.048 18.3551 100.028 18.2405ZM94.7684 16.7184C94.4428 17.0552 93.9531 17.2438 93.39 17.2478L92.1875 17.2557H92.1682C91.0936 17.2557 90.3325 16.6297 90.3153 15.727L90.3093 15.5053C90.302 15.3155 90.3335 15.1262 90.4018 14.949C90.4701 14.7717 90.5738 14.6102 90.7064 14.4743C91.0374 14.1341 91.5363 13.9449 92.1173 13.9382L93.351 13.927C94.5785 13.9164 95.147 14.6874 95.1628 15.4557L95.1715 15.6761C95.1783 15.8675 95.1461 16.0584 95.0768 16.237C95.0074 16.4156 94.9025 16.5783 94.7684 16.7151V16.7184Z" fill="white"/>
<path d="M97.7355 7.82069L97.7309 7.55597H97.7858C97.7996 7.55422 97.8137 7.55527 97.8271 7.55902C97.8405 7.56276 97.8531 7.56915 97.8639 7.57781C97.9064 7.61949 97.9407 7.66861 97.9653 7.72274L98.0188 7.82003H98.1353L98.0611 7.69893C98.0364 7.65382 98.0067 7.61165 97.9724 7.57318C97.9574 7.55966 97.9405 7.54849 97.9222 7.5401C97.9454 7.53865 97.9681 7.53257 97.9888 7.52222C98.0097 7.51189 98.0282 7.49748 98.0433 7.47987C98.0719 7.44618 98.087 7.40299 98.0857 7.35875C98.0836 7.32605 98.0738 7.29431 98.0573 7.26611C98.0383 7.23849 98.0113 7.21745 97.9797 7.2059C97.9308 7.19203 97.8797 7.18644 97.8289 7.18935H97.6302L97.6449 7.82466L97.7355 7.82069ZM97.8362 7.27273C97.8681 7.27138 97.9001 7.2752 97.9308 7.28398C97.9465 7.29147 97.9599 7.30287 97.9698 7.31708C97.981 7.33123 97.987 7.3487 97.987 7.36672C97.9874 7.37928 97.9849 7.39175 97.9797 7.40321C97.9745 7.41466 97.9668 7.42482 97.9573 7.43288C97.9245 7.45656 97.8843 7.46717 97.844 7.46267H97.7276L97.7222 7.26943L97.8362 7.27273Z" fill="white"/>
<path d="M97.6163 8.00668C97.699 8.05426 97.7927 8.07956 97.8882 8.08013C97.9832 8.07968 98.0762 8.05288 98.1568 8.00271C98.2424 7.95015 98.3102 7.87316 98.3514 7.78168C98.3962 7.69001 98.4185 7.58898 98.4163 7.48698C98.4142 7.38499 98.3875 7.28499 98.3389 7.19534C98.292 7.104 98.219 7.02867 98.1291 6.97893C98.049 6.931 97.9577 6.90477 97.8643 6.90283C97.771 6.90599 97.6798 6.93287 97.5997 6.98092C97.5145 7.03463 97.4457 7.1109 97.4011 7.2013C97.3563 7.2936 97.3335 7.39513 97.3349 7.49778C97.3384 7.59954 97.365 7.69916 97.4131 7.78896C97.4602 7.87841 97.5302 7.9536 97.6163 8.00668ZM97.4772 7.24961C97.5126 7.17374 97.5701 7.11031 97.642 7.06761C97.7075 7.02475 97.7842 7.00177 97.8624 7.00144C97.9413 7.0013 98.019 7.02207 98.0875 7.06166C98.1614 7.10389 98.2211 7.16696 98.2595 7.24299C98.3023 7.31748 98.3264 7.4013 98.3297 7.48719C98.3298 7.57203 98.3107 7.65579 98.2734 7.73205C98.2399 7.80903 98.1826 7.87329 98.11 7.91536C98.0441 7.95856 97.9669 7.98158 97.8882 7.98154C97.8056 7.98069 97.7248 7.95778 97.6541 7.9152C97.5833 7.87262 97.5253 7.81189 97.4859 7.73933C97.444 7.66444 97.4211 7.58031 97.4197 7.49447C97.418 7.41015 97.4379 7.3268 97.4772 7.25226V7.24961Z" fill="white"/>
</svg>
