<svg width="101" height="21" viewBox="0 0 101 21" fill="none" xmlns="http://www.w3.org/2000/svg">
<path d="M4.20102 13.2923C4.20102 14.4505 4.45524 15.3398 4.78752 15.8777C5.22318 16.5824 5.87296 16.8809 6.53541 16.8809C7.38984 16.8809 8.17148 16.6688 9.67781 14.5856C10.8846 12.9157 12.3065 10.5718 13.2633 9.10238L14.8835 6.61296C16.009 4.88406 17.3118 2.96212 18.8054 1.65938C20.0248 0.596088 21.3403 0.00537109 22.6641 0.00537109C24.8866 0.00537109 27.0037 1.29335 28.624 3.70896C30.3972 6.35453 31.2579 9.68677 31.2579 13.1256C31.2579 15.1699 30.855 16.672 30.1693 17.8587C29.5069 19.0064 28.2158 20.153 26.0438 20.153V16.8809C27.9035 16.8809 28.3676 15.172 28.3676 13.2163C28.3676 10.4294 27.7179 7.33659 26.2864 5.12668C25.2706 3.55916 23.9542 2.60136 22.5059 2.60136C20.9394 2.60136 19.6789 3.7828 18.2622 5.88933C17.509 7.00853 16.7359 8.37245 15.8676 9.91144L14.9119 11.6045C12.9921 15.0085 12.5059 15.7839 11.546 17.0634C9.86347 19.3039 8.42675 20.153 6.53541 20.153C4.29174 20.153 2.87296 19.1815 1.99427 17.7174C1.27697 16.5243 0.924652 14.9589 0.924652 13.1752L4.20102 13.2923Z" fill="white"/>
<path d="M3.50766 3.93997C5.00977 1.62456 7.17749 0.00537109 9.66377 0.00537109C11.1037 0.00537109 12.5351 0.431527 14.0298 1.65199C15.6648 2.98638 17.4074 5.18364 19.5815 8.8049L20.3611 10.1045C22.2429 13.2396 23.3136 14.8524 23.9401 15.6129C24.746 16.5898 25.3104 16.8809 26.0435 16.8809C27.9032 16.8809 28.3673 15.172 28.3673 13.2163L31.2577 13.1256C31.2577 15.1699 30.8547 16.672 30.169 17.8587C29.5066 19.0064 28.2154 20.153 26.0435 20.153C24.6933 20.153 23.4971 19.8598 22.1743 18.6119C21.1574 17.6541 19.9686 15.9527 19.054 14.4231L16.3336 9.87883C14.9686 7.59819 13.7165 5.89777 12.9918 5.12773C12.2123 4.29967 11.2102 3.29968 9.61103 3.29968C8.31673 3.29968 7.21758 4.2079 6.29774 5.59713L3.50766 3.93997Z" fill="white"/>
<path d="M9.61135 3.29968C8.31705 3.29968 7.2179 4.2079 6.29806 5.59713C4.99744 7.56022 4.20102 10.4842 4.20102 13.2923C4.20102 14.4505 4.45524 15.3398 4.78752 15.8777L1.99427 17.7174C1.27697 16.5243 0.924652 14.9589 0.924652 13.1752C0.924652 9.93154 1.81495 6.55072 3.50798 3.93997C5.01009 1.62456 7.17781 0.00537109 9.6641 0.00537109L9.61135 3.29968Z" fill="white"/>
<path d="M37.6268 0.642456H41.4169L47.8609 12.3006L54.3061 0.642456H58.0139V19.7986H54.9221V5.11714L49.2703 15.2838H46.3694L40.7186 5.11714V19.7986H37.6268V0.642456ZM67.7017 7.78486C65.4844 7.78486 64.1489 9.45363 63.8293 11.5201H71.3546C71.1995 9.39139 69.9717 7.78486 67.7017 7.78486ZM60.7639 12.6973C60.7639 8.3492 63.574 5.18465 67.7555 5.18465C71.8683 5.18465 74.324 8.30912 74.324 12.9293V13.7785H63.8293C64.2017 16.0264 65.6932 17.5412 68.0983 17.5412C70.0171 17.5412 71.2164 16.9557 72.3535 15.885L73.996 17.8966C72.4485 19.3196 70.4802 20.1404 67.9886 20.1404C63.4622 20.1404 60.7639 16.8397 60.7639 12.6973ZM78.073 8.05912H75.227V5.52748H78.073V1.34077H81.0561V5.52748H85.3799V8.05912H81.0561V14.4758C81.0561 16.6667 81.7565 17.4452 83.478 17.4452C84.2639 17.4452 84.7143 17.3777 85.3799 17.2669V19.7711C84.5508 20.0053 83.7597 20.1129 82.9032 20.1129C79.6827 20.1129 78.073 18.3534 78.073 14.8313V8.05912ZM97.9413 10.5211C97.3422 9.00849 96.0058 7.89456 94.0413 7.89456C91.4886 7.89456 89.8546 9.70578 89.8546 12.6562C89.8546 15.5327 91.3588 17.4315 93.9189 17.4315C95.9319 17.4315 97.3684 16.2606 97.9413 14.8038V10.5211ZM100.924 19.7986H97.9955V17.8006C97.1777 18.9768 95.688 20.1404 93.2755 20.1404C89.3957 20.1404 86.8029 16.8924 86.8029 12.6562C86.8029 8.37979 89.4579 5.18465 93.4401 5.18465C95.4086 5.18465 96.9525 5.97157 97.9955 7.36081V5.52748H100.924V19.7986Z" fill="white"/>
</svg>
