<svg width="30" height="31" viewBox="0 0 30 31" fill="none" xmlns="http://www.w3.org/2000/svg">
<g clip-path="url(#clip0_1_210)">
<path d="M28.7625 19.0249C28.7625 16.0999 27.3 13.0375 26.85 11.8624C26.6375 8.9999 25.9125 3.27493 24.7125 3.27493C21.825 3.27493 18.1125 5.56243 18.1125 8.07493C16.2375 6.94993 14.4675 7.69993 13.3875 8.44993C12.6875 6.27493 10.8375 1.92493 9.0375 1.92493C5.4375 1.92493 3.1875 7.36243 2.2125 11.8624C2.12805 12.2522 1.275 15.0649 1.275 19.0249C1.275 25.0624 8.625 28.9624 16.875 28.9624C25.875 28.9624 28.7625 21.4999 28.7625 19.0249Z" fill="#2E004B" stroke="#2E004B" stroke-width="1.8" stroke-linecap="round"/>
<path d="M28.7625 19.1C28.7625 16.175 27.3 13.1125 26.85 11.9375C26.6375 9.07498 25.9125 3.35 24.7125 3.35C23.2125 3.35 18.1125 7.1375 18.1125 8.525C16.9875 8.21248 14.4675 7.775 13.3875 8.525C12.6875 6.35 10.8375 2 9.0375 2C6.7875 2 3.4875 8.075 2.5125 12.575C2.42805 12.9648 1.875 14.5775 1.875 18.5375C1.875 23.4875 8.625 28.6625 16.875 28.6625C25.125 28.6625 28.7625 21.575 28.7625 19.1Z" fill="white"/>
<path d="M12.7875 14.525C7.2375 14.525 4.67497 20.35 3.4875 23.0374C-1.3875 16.775 0.637499 0.199951 14.85 0.199951C27.675 0.199951 29.575 16.25 29.0625 19.9625C29.0625 16.475 27.075 13.775 22.9125 14.525C20.2257 15.0091 19.825 18.4 20.9625 21.0875C20.9625 21.5375 18.7775 22.4168 17.8125 18.5C17.175 15.9124 16.5375 14.525 12.7875 14.525Z" fill="#FF9034"/>
<path d="M24.9375 3.0874C26.9522 3.0874 27.3533 8.3995 27.2985 11.8887C27.2894 12.4695 26.7271 12.8699 26.169 12.7083L17.4989 10.1978C16.8623 10.0134 16.6201 9.21363 17.009 8.677C18.7083 6.33198 20.5948 3.0874 24.9375 3.0874Z" fill="#FF9034"/>
<path opacity="0.2" d="M11.8875 28.4374C3.17355 26.2386 3.15727 17.9479 4.71487 11.2781C4.85227 10.6897 4.15657 10.274 3.7551 10.7256C1.41825 13.3537 0.700273 16.1338 2.025 21.2749C3.11227 25.4946 8.83747 27.85 11.8875 28.4374Z" fill="#6B4220"/>
<path d="M13.5375 9.38747C13.5375 9.29747 13.4125 8.57499 13.3875 8.52497L13.35 8.41246L14.0625 8.22497C14.175 8.74997 13.5375 9.47747 13.5375 9.38747ZM20.025 9.19997C19.785 9.04997 18.375 8.61249 17.7 8.41246C17.5125 7.87494 17.4 6.88246 18.45 7.21247C19.7625 7.62497 20.325 9.38747 20.025 9.19997Z" fill="#2E004B"/>
<path d="M20.0478 19.625C19.8382 19.625 19.3831 19.7956 19.0028 19.9894C18.5963 20.1965 18.4972 20.6535 18.7681 21.0207C19.2476 21.671 20.0547 22.4 20.5027 22.4C21.2608 22.4 21.6375 20.7556 21.6375 20.3959C21.6375 19.7375 20.5027 19.625 20.0478 19.625Z" fill="#2E004B"/>
<path d="M23.9237 22.7908C24.194 22.9014 24.4067 23.107 24.5525 23.3987C24.8933 24.0804 24.533 24.7807 24.011 25.2265C23.4709 25.6879 22.6514 25.9999 21.7125 25.9999H21.5842C19.9518 26 18.3194 26.0002 16.6658 25.8498C16.2509 25.8454 15.7552 25.7143 15.3499 25.4576C14.9336 25.194 14.55 24.7516 14.55 24.1249L23.9237 22.7908ZM23.9237 22.7908C23.6666 22.6857 23.4005 22.6844 23.1714 22.7127L23.9237 22.7908ZM23.9237 22.7908L23.1714 22.7127L23.9237 22.7908ZM23.1714 22.7127C22.9427 22.741 22.7117 22.8043 22.5122 22.8616L23.1714 22.7127ZM23.1714 22.7127L22.5122 22.8616L23.1714 22.7127ZM22.5122 22.8616L22.4138 22.8901L22.5122 22.8616ZM22.5122 22.8616L22.4138 22.8901L22.5122 22.8616ZM22.4138 22.8901C22.2449 22.939 22.0997 22.9811 21.9617 23.0087L22.4138 22.8901ZM22.4138 22.8901L21.9617 23.0087L22.4138 22.8901ZM21.9617 23.0087C21.1544 23.1702 20.3582 23.0723 19.506 22.9167C19.3577 22.8896 19.2066 22.8604 19.0532 22.8309C18.3492 22.6951 17.5965 22.5499 16.8375 22.5499C16.0897 22.5499 15.5146 22.663 15.1196 22.9414M21.9617 23.0087L15.1196 22.9414L21.9617 23.0087ZM15.1196 22.9414C14.6858 23.2471 14.55 23.6896 14.55 24.1249L15.1196 22.9414Z" fill="#2E004B"/>
<path d="M23.9237 22.7908C23.6666 22.6857 23.4005 22.6844 23.1714 22.7127M23.9237 22.7908L23.1714 22.7127M23.1714 22.7127C22.9427 22.741 22.7117 22.8043 22.5122 22.8616M23.1714 22.7127L22.5122 22.8616M22.5122 22.8616L22.4138 22.8901M22.5122 22.8616L22.4138 22.8901M22.4138 22.8901C22.2449 22.939 22.0997 22.9811 21.9617 23.0087M22.4138 22.8901L21.9617 23.0087M21.9617 23.0087C21.1544 23.1702 20.3582 23.0723 19.506 22.9167C19.3577 22.8896 19.2066 22.8604 19.0532 22.8309C18.3492 22.6951 17.5965 22.5499 16.8375 22.5499C16.0897 22.5499 15.5146 22.663 15.1196 22.9414M21.9617 23.0087L15.1196 22.9414M23.9237 22.7908C24.194 22.9014 24.4067 23.107 24.5525 23.3987C24.8933 24.0804 24.533 24.7807 24.011 25.2265C23.4709 25.6879 22.6514 25.9999 21.7125 25.9999H21.5842C19.9518 26 18.3194 26.0002 16.6658 25.8498C16.2509 25.8454 15.7552 25.7143 15.3499 25.4576C14.9336 25.194 14.55 24.7516 14.55 24.1249L23.9237 22.7908V22.7908ZM15.1196 22.9414C14.6858 23.2471 14.55 23.6896 14.55 24.1249L15.1196 22.9414Z" stroke="#2E004B" stroke-width="0.9" stroke-linecap="round"/>
<path d="M16.9875 24.3125C15.7575 24.3125 14.95 24.4125 14.7 24.4625L16.2 27.9125C18.2625 27.1125 22.215 25.4975 21.525 25.4375C20.6625 25.3625 18.525 24.3125 16.9875 24.3125Z" fill="#FCA0A1"/>
<path d="M16.35 25.475C16.26 24.605 17.5375 24.4375 18.1875 24.4625C17.1675 23.4425 14.7875 23.8124 13.725 24.125C14.6375 24.9374 16.44 26.345 16.35 25.475Z" fill="#D7859B"/>
<path d="M23.9237 22.7908C23.6666 22.6857 23.4005 22.6844 23.1714 22.7127M23.9237 22.7908L23.1714 22.7127M23.1714 22.7127C22.9427 22.741 22.7117 22.8043 22.5122 22.8616M23.1714 22.7127L22.5122 22.8616M22.5122 22.8616L22.4138 22.8901M22.5122 22.8616L22.4138 22.8901M22.4138 22.8901C22.2449 22.939 22.0997 22.9811 21.9617 23.0087M22.4138 22.8901L21.9617 23.0087M21.9617 23.0087C21.1544 23.1702 20.3582 23.0723 19.506 22.9167C19.3577 22.8896 19.2066 22.8604 19.0532 22.8309C18.3492 22.6951 17.5965 22.5499 16.8375 22.5499C16.0897 22.5499 15.5146 22.663 15.1196 22.9414M21.9617 23.0087L15.1196 22.9414M23.9237 22.7908C24.194 22.9014 24.4067 23.107 24.5525 23.3987C24.8933 24.0804 24.533 24.7807 24.011 25.2265C23.4709 25.6879 22.6514 25.9999 21.7125 25.9999H21.5842C19.9518 26 18.3194 26.0002 16.6658 25.8498C16.2509 25.8454 15.7552 25.7143 15.3499 25.4576C14.9336 25.194 14.55 24.7516 14.55 24.1249L23.9237 22.7908V22.7908ZM15.1196 22.9414C14.6858 23.2471 14.55 23.6896 14.55 24.1249L15.1196 22.9414Z" stroke="#2E004B" stroke-width="0.9" stroke-linecap="round"/>
<path d="M15.75 17.45C15.75 18.2747 15.6067 19.068 15.3496 19.6669C15.0925 20.2659 14.7412 20.6249 14.3677 20.6701C13.9943 20.7154 13.6273 20.4435 13.342 19.9103C13.0566 19.3771 12.8748 18.6231 12.8338 17.8035C12.7928 16.9837 12.8958 16.1605 13.1215 15.5031C13.3474 14.8456 13.6787 14.4039 14.0476 14.2686C14.4166 14.1334 14.795 14.315 15.1051 14.776C15.4152 15.237 15.6334 15.9425 15.7149 16.7473L14.2875 17.45H15.75ZM24.5101 15.5541C23.3944 15.8619 22.4402 16.9832 21.9858 17.7998C21.6888 18.3336 22.1473 18.5761 23.0968 18.2081C24.15 17.7998 26.025 17.7998 25.8736 17.5446C25.7524 17.3404 24.6616 17.0342 24.6616 17.0342C25.7721 16.728 26.3788 15.7576 26.227 15.4521C26.1762 15.35 25.6206 15.2479 24.5101 15.5541Z" fill="#2E004B"/>
</g>
<defs>
<clipPath id="clip0_1_210">
<rect width="30" height="30" fill="white" transform="translate(0 0.199951)"/>
</clipPath>
</defs>
</svg>
