<svg width="148" height="17" viewBox="0 0 148 17" fill="none" xmlns="http://www.w3.org/2000/svg">
<path d="M6.80955 0.808838H10.9425L17.5292 16.3911H12.9322L11.8053 13.6284H5.83734L4.7319 16.3911H0.222839L6.80955 0.808838ZM10.5672 10.2911L8.84338 5.89249L7.09685 10.2911H10.5672Z" fill="white"/>
<path d="M20.5292 0.864014H24.5298L30.8956 9.04169V0.864014H35.14V16.3359H31.3823L24.7733 7.84845V16.3359H20.5292V0.864014Z" fill="white"/>
<path d="M44.0192 10.5447L38.14 0.864014H43.0243L46.2074 6.49984L49.4116 0.864014H54.208L48.3289 10.4782V16.3359H44.0192V10.5447Z" fill="white"/>
<path d="M57.208 0.864014H65.1434C67.0881 0.864014 68.4591 1.35069 69.3651 2.25661C69.9835 2.87519 70.36 3.69317 70.36 4.75447V4.79842C70.36 6.58876 69.3434 7.65005 67.9724 8.24619C69.8506 8.8648 71.0449 9.9261 71.0449 12.0262V12.0702C71.0449 14.7224 68.8784 16.3359 65.1872 16.3359H57.208V0.864014ZM64.082 7.03048C65.3857 7.03048 66.1156 6.58876 66.1156 5.68187V5.63791C66.1156 4.79842 65.4521 4.31178 64.1709 4.31178H61.3857V7.03048H64.082ZM64.7005 12.8882C66.0041 12.8882 66.7558 12.38 66.7558 11.4731V11.4291C66.7558 10.5896 66.0923 10.0365 64.6558 10.0365H61.3848V12.8882H64.7005Z" fill="white"/>
<path d="M74.0449 8.64445V8.60049C74.0449 4.15789 77.6256 0.554749 82.3996 0.554749C87.1733 0.554749 90.7101 4.11294 90.7101 8.55553V8.59949C90.7101 13.0421 87.1295 16.6452 82.3555 16.6452C77.5814 16.6452 74.0449 13.087 74.0449 8.64445ZM86.334 8.64445V8.60049C86.334 6.36843 84.7204 4.42272 82.3555 4.42272C80.0129 4.42272 78.4434 6.32348 78.4434 8.55553V8.59949C78.4434 10.8315 80.057 12.7773 82.4005 12.7773C84.7654 12.7773 86.3349 10.8765 86.3349 8.64445H86.334Z" fill="white"/>
<path d="M93.7101 0.864014H99.6784C105.204 0.864014 108.409 4.04691 108.409 8.51199V8.55598C108.409 13.0211 105.16 16.3359 99.5905 16.3359H93.7114V0.864014H93.7101ZM99.7449 12.5344C102.309 12.5344 104.01 11.1193 104.01 8.62244V8.57845C104.01 6.10308 102.308 4.66652 99.7449 4.66652H97.9984V12.5354H99.7449V12.5344Z" fill="white"/>
<path d="M111.409 0.864014H115.719V16.3359H111.409V0.864014Z" fill="white"/>
<path d="M118.719 0.864014H131.163V4.51111H122.963V6.85359H130.389V10.2349H122.963V12.6888H131.274V16.3359H118.719V0.864014Z" fill="white"/>
<path d="M134.274 14.0369L136.661 11.1853C138.186 12.401 139.888 13.0421 141.678 13.0421C142.827 13.0421 143.446 12.6443 143.446 11.9808V11.9368C143.446 11.2957 142.938 10.942 140.838 10.4563C137.544 9.70477 135.003 8.77637 135.003 5.59344V5.54948C135.003 2.67634 137.279 0.598694 140.992 0.598694C143.622 0.598694 145.678 1.30625 147.358 2.65386L145.214 5.68238C143.799 4.68755 142.252 4.15688 140.882 4.15688C139.843 4.15688 139.335 4.5986 139.335 5.15175V5.1957C139.335 5.90326 139.865 6.21205 142.009 6.69873C145.568 7.47271 147.778 8.62196 147.778 11.5176V11.5615C147.778 14.722 145.28 16.6012 141.523 16.6012C138.781 16.6012 136.174 15.7393 134.274 14.0369Z" fill="white"/>
</svg>
