<svg width="48" height="45" viewBox="0 0 48 45" fill="none" xmlns="http://www.w3.org/2000/svg">
<path d="M47.2228 44.4676H35.9836C35.9621 44.4549 35.9237 44.4244 35.8681 44.3815C35.8428 44.3639 35.8126 44.3386 35.782 44.3171C35.5633 44.1497 35.2113 43.8969 34.9672 43.7679C33.4358 42.979 31.8663 42.2579 30.3703 41.4047C29.4134 40.8642 28.5221 40.1911 27.6641 39.4923C26.9996 38.9519 26.8794 38.176 27.2781 37.4165C28.0882 35.8724 28.5436 34.1576 29.6929 32.7806C30.0573 32.3428 30.3017 31.7467 30.4259 31.1857C30.512 30.7527 30.4902 30.1136 30.2286 29.8136C29.6714 29.1705 29.5385 28.5011 29.6108 27.7164C29.645 27.3215 29.6235 26.9277 29.6108 26.528C29.5209 23.9803 28.0882 21.9994 25.7125 21.502C24.4646 21.245 23.1736 21.2108 21.9091 21.4072C19.2842 21.8235 17.6981 23.8083 17.6033 26.4635C17.5818 27.0851 17.6502 27.7076 17.5779 28.3203C17.5349 28.7278 17.3981 29.1783 17.1537 29.495C16.6905 30.1087 16.5449 30.7253 16.841 31.425C17.0511 31.9186 17.227 32.467 17.5662 32.8615C18.733 34.2298 19.1395 35.9703 19.9633 37.5017C20.3318 38.1787 20.2077 38.8911 19.6204 39.3975C18.8659 40.0534 18.0851 40.7225 17.2192 41.2162C15.7181 42.0654 14.1526 42.7896 12.6046 43.5488C12.244 43.7247 11.7036 44.102 11.4124 44.3159C11.3782 44.3376 11.344 44.363 11.3176 44.3806C11.258 44.4235 11.2189 44.4537 11.2062 44.4667H0L0.0469069 44.3806L0.0811124 44.3159L23.6114 0.731445L47.1419 44.318L47.176 44.3824L47.2228 44.4685V44.4676Z" fill="white"/>
</svg>
