<svg width="31" height="28" viewBox="0 0 31 28" fill="none" xmlns="http://www.w3.org/2000/svg">
<path d="M30.179 21.6985L25.171 27.0305C25.0631 27.1475 24.9319 27.2407 24.7859 27.304C24.6398 27.3674 24.4822 27.3996 24.323 27.3985H0.583007C0.469849 27.3979 0.359248 27.3648 0.26439 27.3031C0.169533 27.2414 0.0944197 27.1537 0.0480067 27.0505C0.00246329 26.9475 -0.0114593 26.8334 0.00800667 26.7225C0.0278904 26.611 0.0792456 26.5076 0.156007 26.4245L5.15801 21.0925C5.26586 20.9754 5.39702 20.8821 5.54307 20.8187C5.68912 20.7554 5.84681 20.7233 6.00601 20.7245H29.746C29.8598 20.7214 29.9719 20.7522 30.0682 20.813C30.1644 20.8737 30.2404 20.9618 30.2865 21.0658C30.3326 21.1699 30.3467 21.2853 30.327 21.3975C30.3073 21.5096 30.2548 21.6133 30.176 21.6955L30.179 21.6985ZM25.17 10.9585C25.0603 10.8438 24.9288 10.7521 24.7831 10.6889C24.6375 10.6257 24.4807 10.5923 24.322 10.5905H0.583007C0.469739 10.5912 0.35906 10.6244 0.264191 10.6863C0.169322 10.7482 0.0942726 10.8361 0.0480067 10.9395C0.00252191 11.0424 -0.0113985 11.1566 0.00800667 11.2675C0.0280067 11.3795 0.0790067 11.4805 0.156007 11.5645L5.15801 16.8995C5.26501 17.0145 5.39801 17.1075 5.54201 17.1695C5.68901 17.2335 5.84501 17.2645 6.00601 17.2675H29.746C29.8586 17.2677 29.9688 17.2349 30.0628 17.173C30.1569 17.1111 30.2307 17.023 30.275 16.9195C30.3206 16.8166 30.3347 16.7025 30.3155 16.5916C30.2963 16.4807 30.2446 16.378 30.167 16.2965L25.167 10.9615L25.17 10.9585ZM0.582007 7.12847H24.322C24.4815 7.12763 24.6393 7.09499 24.786 7.03247C24.933 6.96847 25.063 6.87847 25.17 6.76047L30.18 1.42847C30.2378 1.36671 30.2814 1.29302 30.3077 1.2126C30.3339 1.13219 30.3423 1.04699 30.3321 0.963008C30.3219 0.879025 30.2934 0.798298 30.2486 0.726507C30.2039 0.654715 30.1439 0.593604 30.073 0.547472C29.9768 0.485824 29.8643 0.454472 29.75 0.457472H6.00601C5.84801 0.457472 5.68901 0.491472 5.54201 0.552472C5.39619 0.615375 5.26532 0.708411 5.15801 0.825472L0.156007 6.15747C0.0794866 6.24004 0.0285563 6.34304 0.00938724 6.45397C-0.00978182 6.5649 0.00363318 6.67901 0.0480067 6.78247C0.0943491 6.88552 0.169307 6.9731 0.26397 7.03479C0.358633 7.09648 0.469019 7.12969 0.582007 7.13047V7.12847Z" fill="white"/>
</svg>
