<svg width="21" height="20" viewBox="0 0 21 20" fill="none" xmlns="http://www.w3.org/2000/svg">
<path d="M14.0977 6.50781C13.5312 3.01953 12.1953 0.570312 10.6406 0.570312C9.08594 0.570312 7.75 3.01953 7.18359 6.50781H14.0977ZM6.89062 10.2578C6.89062 11.125 6.9375 11.957 7.01953 12.7578H14.2578C14.3398 11.957 14.3867 11.125 14.3867 10.2578C14.3867 9.39062 14.3398 8.55859 14.2578 7.75781H7.01953C6.9375 8.55859 6.89062 9.39062 6.89062 10.2578ZM19.5742 6.50781C18.457 3.85547 16.1953 1.80469 13.4023 0.976562C14.3555 2.29688 15.0117 4.28516 15.3555 6.50781H19.5742ZM7.875 0.976562C5.08594 1.80469 2.82031 3.85547 1.70703 6.50781H5.92578C6.26562 4.28516 6.92188 2.29688 7.875 0.976562ZM19.9922 7.75781H15.5117C15.5938 8.57812 15.6406 9.41797 15.6406 10.2578C15.6406 11.0977 15.5938 11.9375 15.5117 12.7578H19.9883C20.2031 11.957 20.3242 11.125 20.3242 10.2578C20.3242 9.39062 20.2031 8.55859 19.9922 7.75781ZM5.64062 10.2578C5.64062 9.41797 5.6875 8.57812 5.76953 7.75781H1.28906C1.07813 8.55859 0.953125 9.39062 0.953125 10.2578C0.953125 11.125 1.07813 11.957 1.28906 12.7578H5.76562C5.6875 11.9375 5.64062 11.0977 5.64062 10.2578ZM7.18359 14.0078C7.75 17.4961 9.08594 19.9453 10.6406 19.9453C12.1953 19.9453 13.5312 17.4961 14.0977 14.0078H7.18359ZM13.4062 19.5391C16.1953 18.7109 18.4609 16.6602 19.5781 14.0078H15.3594C15.0156 16.2305 14.3594 18.2188 13.4062 19.5391ZM1.70703 14.0078C2.82422 16.6602 5.08594 18.7109 7.87891 19.5391C6.92578 18.2188 6.26953 16.2305 5.92578 14.0078H1.70703Z" fill="#848895"/>
</svg>
