<svg width="100" height="31" viewBox="0 0 100 31" fill="none" xmlns="http://www.w3.org/2000/svg">
<g clip-path="url(#clip0_1_196)">
<path d="M44.1359 5.2603L44.7812 5.6011L48.4716 7.15208C48.805 7.33436 49.1757 7.43799 49.5553 7.45495C49.9349 7.4719 50.3133 7.40173 50.6616 7.2499C51.4859 6.92101 52.3289 6.64074 53.186 6.4105L52.801 5.92612C51.9001 6.22274 51.0261 6.4957 50.163 6.79866C49.8047 6.95205 49.4009 6.96053 49.0365 6.82227C48.7588 6.70712 45.963 5.52063 44.3695 4.84219C43.7494 4.57712 43.3123 4.39095 43.2744 4.36886C42.5913 4.03911 42.8563 3.47584 43.2965 3.31175C43.4543 3.24864 46.3401 2.15051 47.6212 1.68349C48.4369 1.38686 49.2589 1.1076 50.0794 0.828339C50.1741 0.796783 50.7105 0.564852 51.5625 0.957715C52.7269 1.4989 53.9292 1.95644 55.1093 2.46133C55.5968 2.66959 56.0796 2.88733 56.564 3.10191L57.4476 3.48688C57.9793 3.71566 58.1228 4.32152 57.4476 4.52664C56.9916 4.66548 56.3605 4.8627 56.0276 4.96683C56.3211 5.31394 56.5688 5.62161 56.8291 5.91349C57.2756 6.42469 57.8262 7.18677 57.8988 7.29718C58.0802 7.57488 57.9272 7.85734 57.6132 7.85571H57.4791C57.9619 8.84499 58.4968 10.0299 58.9906 11.3363C59.2226 10.5474 59.737 10.5474 60.0667 10.6247C60.6331 10.7589 60.7404 11.5951 60.7199 12.709C60.7056 13.4757 60.9991 14.14 61.474 14.525C61.8574 14.8406 62.6416 15.7509 62.0641 16.472C61.9625 16.5969 61.83 16.6932 61.6797 16.7513C61.5295 16.8094 61.3667 16.8273 61.2074 16.8033C61.4819 17.6584 62.0373 19.7269 61.5229 21.221C61.2674 21.9657 60.9629 21.8442 60.6867 21.4151C60.5479 22.7673 60.133 25.2018 58.9133 26.6959C58.3327 27.4027 57.9762 27.2939 57.8089 26.8111C54.516 29.5375 49.6234 29.2993 49.6234 29.2993C46.0545 29.2046 43.7257 28.1948 42.1984 26.8931C42.017 27.3033 41.6699 27.3665 41.1239 26.6959C40.111 25.4605 39.6535 23.5688 39.4484 22.1866C39.3931 21.9436 39.3505 21.7133 39.3174 21.5176C39.3166 21.5035 39.3166 21.4893 39.3174 21.4751C39.0508 21.8537 38.7636 21.9295 38.5206 21.221C38.0047 19.7221 38.5601 17.6537 38.8362 16.8033C38.6769 16.8273 38.5141 16.8094 38.3638 16.7513C38.2136 16.6932 38.0811 16.5969 37.9795 16.472C37.402 15.7509 38.1861 14.8327 38.5695 14.525C39.0429 14.14 39.3379 13.4757 39.3237 12.709C39.3032 11.5951 39.4105 10.7589 39.9769 10.6247C40.283 10.5506 40.7468 10.549 40.9977 11.1754C41.6288 9.5976 42.2962 8.19966 42.8469 7.12677C43.2117 6.44207 43.6612 5.80597 44.1848 5.23348L43.8551 5.00312C43.3277 5.5956 42.8717 6.248 42.4966 6.9469C41.8781 8.15075 41.3496 9.28521 40.8889 10.3944C40.7432 10.2965 40.5779 10.2317 40.4046 10.2044C40.2313 10.1772 40.0541 10.1882 39.8854 10.2366C39.0082 10.4465 38.9087 11.5509 38.9293 12.7137C38.9403 13.3353 38.7131 13.8971 38.3234 14.2141C37.6734 14.7348 36.9634 15.8314 37.6718 16.7165C37.8369 16.9254 38.0639 17.0767 38.3202 17.1488C38.0047 18.2833 37.6891 19.9998 38.1499 21.3489C38.2114 21.5303 38.4007 22.0825 38.8614 22.1488C38.9216 22.1575 38.9827 22.1575 39.0429 22.1488C39.2811 23.684 39.7576 25.6451 40.8273 26.9499C41.2218 27.4233 41.5847 27.6394 41.9318 27.5905C42.0517 27.5739 42.1652 27.5266 42.2615 27.4533C44.0807 28.8606 46.5515 29.6163 49.606 29.6968C49.636 29.6968 49.7639 29.6968 49.9642 29.6968C51.1302 29.6968 54.8553 29.5186 57.711 27.3869C57.8132 27.4877 57.9437 27.5548 58.085 27.5795C58.4463 27.6442 58.8186 27.4359 59.221 26.9484C60.316 25.6136 60.7988 23.5735 60.9991 22.1456C61.0577 22.1551 61.1174 22.1551 61.1759 22.1456C61.6492 22.0888 61.8385 21.5287 61.9 21.3457C62.3734 19.9951 62.0483 18.2785 61.7312 17.1441C61.9872 17.0713 62.2136 16.9194 62.3781 16.7102C63.0865 15.8266 62.3781 14.7316 61.728 14.2094C61.3368 13.8939 61.1096 13.3306 61.1206 12.709C61.1427 11.5462 61.0418 10.4417 60.1629 10.2318C59.978 10.1765 59.7823 10.1674 59.593 10.2054C59.4037 10.2433 59.2267 10.3272 59.0774 10.4496C58.7619 9.68597 58.429 8.90812 58.0566 8.12551C58.155 8.06192 58.2359 7.97453 58.2917 7.87149C58.3551 7.74738 58.3834 7.60821 58.3734 7.46916C58.3634 7.33005 58.3155 7.19642 58.2349 7.08262C58.1481 6.9501 57.5833 6.17226 57.1304 5.65475C56.9916 5.49697 56.8559 5.33919 56.7139 5.16405L57.5691 4.90057C58.0077 4.76646 58.2807 4.46511 58.3011 4.09275C58.3232 3.69199 58.0519 3.31175 57.6101 3.12242L56.22 2.51182C55.9045 2.36982 55.5889 2.2294 55.2734 2.09372C54.8395 1.90911 54.3977 1.72767 53.9702 1.55096C53.2318 1.24961 52.4697 0.937204 51.7376 0.604293C51.1874 0.324573 50.5493 0.272439 49.9611 0.459141C49.1217 0.746295 48.2997 1.02555 47.495 1.31745C46.2943 1.75607 43.6878 2.74849 43.1687 2.94728C42.9809 3.01002 42.8153 3.12579 42.6918 3.28062C42.5683 3.43545 42.4923 3.62271 42.473 3.8198C42.473 3.99651 42.5108 4.43828 43.1135 4.72858C43.1419 4.74279 43.2713 4.79643 43.8267 5.04414L44.1359 5.2603Z" fill="white"/>
<path d="M60.3868 15.0473C60.366 15.0634 60.3409 15.0732 60.3146 15.0754C60.2882 15.0777 60.2619 15.0723 60.2385 15.0599C60.0718 14.9729 59.925 14.8519 59.8078 14.7049C59.6882 14.5568 59.5982 14.3869 59.5427 14.2047C59.487 14.0266 59.4604 13.8407 59.4638 13.654C59.4655 13.469 59.5002 13.2857 59.5664 13.1129C59.5776 13.0843 59.5983 13.0605 59.625 13.0454C59.6517 13.0302 59.6827 13.0246 59.713 13.0296C59.7433 13.0346 59.7709 13.0498 59.7913 13.0727C59.8118 13.0956 59.8237 13.1248 59.8251 13.1554V13.1728C59.8251 13.3211 59.8441 13.4884 59.8646 13.6351C59.8836 13.7837 59.9153 13.9305 59.9593 14.0738C60.0021 14.2144 60.0615 14.3494 60.136 14.4761C60.2137 14.606 60.3024 14.729 60.4011 14.8437L60.4105 14.8579C60.4323 14.8862 60.442 14.922 60.4376 14.9575C60.4332 14.9929 60.415 15.0252 60.3868 15.0473Z" fill="white"/>
<path d="M57.2563 7.41067L57.1648 7.39332C56.8761 7.33965 56.4154 7.23556 56.286 7.21821C56.0257 7.1693 55.9815 7.21821 55.8963 7.4706C55.8111 7.72306 55.6975 7.97865 55.565 8.29267C55.5461 8.33369 55.5066 8.49934 55.3883 8.35104C54.6688 7.45482 53.9998 6.61548 53.3119 5.75875C54.1166 5.51103 54.6531 5.38166 55.5066 5.14185C55.9721 5.75717 57.1617 6.93419 57.37 7.30815C57.4189 7.39488 57.3873 7.44067 57.2563 7.41067Z" fill="white"/>
<path d="M56.9967 10.8013C55.9286 10.7351 51.9163 10.4589 50.2849 10.4747C48.6535 10.4905 43.8538 10.7351 42.7857 10.8013C42.7088 10.8109 42.6311 10.7903 42.569 10.7438C42.5069 10.6973 42.4653 10.6286 42.4528 10.5521C42.4507 10.4895 42.4703 10.4282 42.5083 10.3785C42.5462 10.3287 42.6002 10.2936 42.6611 10.2791C43.1833 10.1213 47.4906 9.59436 50.0766 9.59436C52.0946 9.59436 56.607 10.1229 57.1292 10.2791C57.1901 10.2936 57.2441 10.3287 57.282 10.3785C57.32 10.4282 57.3396 10.4895 57.3375 10.5521C57.3251 10.6301 57.2823 10.7002 57.2185 10.7469C57.1546 10.7936 57.0749 10.8131 56.9967 10.8013Z" fill="white"/>
<path d="M54.5509 11.4011C54.5451 11.3119 54.5564 11.2225 54.584 11.1376C55.3161 11.1376 55.8968 11.1896 56.1808 11.2196C56.1947 11.2918 56.1995 11.3655 56.195 11.4389C56.195 11.8129 55.8132 12.1079 55.3587 12.0969C54.9043 12.0858 54.5367 11.775 54.5509 11.4011Z" fill="white"/>
<path d="M44.0779 11.4389C44.0734 11.3655 44.0782 11.2918 44.0921 11.2196C44.3761 11.1896 44.9568 11.1407 45.6889 11.1376C45.7165 11.2225 45.7277 11.3119 45.722 11.4011C45.722 11.775 45.367 12.0874 44.9141 12.0969C44.4613 12.1064 44.0858 11.8129 44.0779 11.4389Z" fill="white"/>
<path d="M40.4688 14.2049C40.4134 14.3871 40.3234 14.5569 40.2037 14.7051C40.0865 14.8521 39.9398 14.973 39.773 15.0601C39.7411 15.077 39.7039 15.0807 39.6694 15.0703C39.6348 15.06 39.6057 15.0364 39.5884 15.0049C39.5755 14.982 39.5699 14.9557 39.5721 14.9295C39.5744 14.9034 39.5844 14.8785 39.601 14.8581L39.6105 14.8439C39.7091 14.7291 39.7978 14.6061 39.8755 14.4763C39.9501 14.3496 40.0094 14.2146 40.0523 14.074C40.0962 13.9307 40.1279 13.7839 40.1469 13.6353C40.1675 13.4775 40.1785 13.3197 40.1864 13.173V13.1556C40.1874 13.138 40.1919 13.1207 40.1995 13.1049C40.2072 13.089 40.218 13.0748 40.2312 13.063C40.2444 13.0513 40.2597 13.0423 40.2764 13.0365C40.2931 13.0307 40.3108 13.0283 40.3284 13.0294C40.3537 13.031 40.3781 13.0397 40.3987 13.0545C40.4194 13.0693 40.4354 13.0896 40.4451 13.113C40.5113 13.2859 40.5461 13.4691 40.5477 13.6542C40.5512 13.8408 40.5245 14.0268 40.4688 14.2049Z" fill="white"/>
<path d="M49.9026 26.737H49.8552C42.0547 26.5791 42.5328 19.9525 42.5328 19.9525C42.5833 16.6628 45.1156 14.88 47.659 13.9964L47.8088 13.9412C48.4163 13.7235 48.3105 13.3763 47.8404 13.3322L47.4791 13.2959C47.3325 13.2908 47.1919 13.2363 47.0801 13.1412C46.9684 13.0461 46.8921 12.916 46.8638 12.7721C46.8056 12.5765 46.7997 12.3691 46.8468 12.1707C46.8939 11.9721 46.9922 11.7894 47.1319 11.6408C47.6952 11.0333 48.552 11.0002 49.2777 11.554C49.3676 11.6218 49.4608 11.6881 49.5538 11.7528C49.6527 11.82 49.7696 11.856 49.8891 11.856C50.0087 11.856 50.1255 11.82 50.2244 11.7528C50.319 11.6913 50.4106 11.6218 50.5005 11.554C51.2247 11.0002 52.0783 11.0333 52.6463 11.6408C52.7854 11.7898 52.8833 11.9725 52.9303 12.1709C52.9773 12.3692 52.9719 12.5764 52.9145 12.7721C52.8861 12.916 52.8098 13.0461 52.6981 13.1412C52.5864 13.2363 52.4458 13.2908 52.2992 13.2959L51.9379 13.3322C51.4645 13.3763 51.4266 13.7597 51.9947 13.9459L52.1193 13.987C54.6626 14.869 57.195 16.6692 57.2455 19.9525C57.2455 19.9525 57.7251 26.5949 49.9026 26.737ZM50.8366 12.7815C51.211 12.7484 51.5811 12.6771 51.941 12.5685C51.9773 12.5591 52.1335 12.4707 52.1177 12.3461C52.0578 11.9548 51.6807 11.95 51.4267 12.021C51.1435 12.0929 50.889 12.2498 50.6978 12.4707C50.4863 12.7484 50.6741 12.8005 50.8366 12.7815ZM51.9111 21.9105C51.5955 21.931 51.2894 21.9831 50.9786 21.9988C50.8539 21.9988 50.7293 22.0099 50.6046 22.0115C50.2102 22.0115 49.8851 21.9973 49.7227 21.991C49.4891 21.9815 49.2493 21.972 49.1625 21.9657C49.0048 21.9547 48.8565 21.9374 48.7034 21.9184C48.3973 21.8805 48.0975 21.8064 47.7899 21.7606C47.741 21.7606 47.6936 21.8064 47.6826 21.8774C47.6773 21.9021 47.6791 21.9278 47.6877 21.9515C47.6964 21.9752 47.7116 21.996 47.7315 22.0115C47.8742 22.0896 48.025 22.152 48.1811 22.1977C48.339 22.2434 48.4967 22.2797 48.6435 22.3113C48.7902 22.3428 48.959 22.3649 49.1168 22.3838C49.2746 22.4028 49.8536 22.4233 50.0145 22.4249C50.1755 22.4265 50.3301 22.4391 50.4879 22.4249C50.6456 22.4107 50.8034 22.4075 50.9612 22.3855C51.119 22.3633 51.2768 22.3397 51.4345 22.305C51.5972 22.2682 51.7557 22.2154 51.9079 22.1472C51.9303 22.134 51.9488 22.1151 51.9613 22.0923C51.9738 22.0695 51.9799 22.0438 51.9789 22.0178C51.9994 21.9626 51.9615 21.9058 51.9111 21.9105ZM54.456 20.2728C54.1491 20.1073 53.826 19.9735 53.4919 19.8736C53.1638 19.7758 52.8325 19.6969 52.4995 19.6259C52.1666 19.5549 51.8306 19.5044 51.4945 19.4682C51.1585 19.4318 49.9167 19.3671 49.5838 19.3592C49.2509 19.3513 48.9054 19.323 48.5646 19.3324C48.2238 19.3419 47.8845 19.3609 47.5438 19.4019C47.203 19.4429 46.8638 19.4886 46.5245 19.5597C46.1787 19.6285 45.8406 19.731 45.5147 19.8657C45.4682 19.8933 45.43 19.9329 45.4042 19.9804C45.3784 20.0279 45.3658 20.0815 45.368 20.1355C45.368 20.2933 45.4516 20.4022 45.5573 20.3959C46.2216 20.3596 46.8811 20.2586 47.5406 20.2381C47.8073 20.2287 48.0723 20.2223 48.339 20.2207C49.172 20.2412 49.8647 20.2712 50.2133 20.2854C50.7103 20.3107 51.2342 20.3391 51.4108 20.3533C51.739 20.3801 52.0641 20.4211 52.3907 20.4637C53.0439 20.5505 53.686 20.7114 54.3408 20.8092C54.4465 20.825 54.5459 20.7162 54.5633 20.5678C54.5766 20.5136 54.5735 20.4565 54.5544 20.404C54.5353 20.3515 54.501 20.3059 54.456 20.2728ZM49.0805 12.4707C48.8892 12.2498 48.6348 12.0929 48.3516 12.021C48.0975 11.95 47.7205 11.9548 47.659 12.3461C47.6447 12.4707 47.8009 12.5591 47.8373 12.5685C48.1971 12.6771 48.5672 12.7484 48.9416 12.7815C49.1042 12.8005 49.2919 12.7484 49.0805 12.4707Z" fill="white"/>
</g>
<defs>
<clipPath id="clip0_1_196">
<rect width="25.4348" height="30" fill="white" transform="translate(37.2826 0.199951)"/>
</clipPath>
</defs>
</svg>
