<svg width="42" height="31" viewBox="0 0 42 31" fill="none" xmlns="http://www.w3.org/2000/svg">
<g clip-path="url(#clip0_1_231)">
<path d="M40.2535 15.3989C40.1067 15.3417 39.964 15.2726 39.813 15.2288C38.7332 14.9129 37.6544 14.5961 36.5704 14.2962C36.4411 14.2608 36.2592 14.2802 36.1458 14.3484C35.4791 14.7511 34.8232 15.1715 34.1682 15.5935C33.1435 16.2532 32.1314 16.933 31.0951 17.5741C30.4684 17.9616 29.967 17.66 29.9494 16.9271C29.9478 16.8437 29.9411 16.7611 29.9361 16.66C29.3153 16.7527 28.712 16.8901 28.1045 16.9111C27.8192 16.9212 27.4963 16.7527 27.2459 16.5825C27.0131 16.4242 26.8521 16.1571 26.6468 15.923C26.5859 16.0282 26.5167 16.131 26.4649 16.2414C25.9793 17.2927 25.1215 17.687 24.0268 17.6069C23.4202 17.5623 22.796 17.5194 22.2219 17.3382C21.7948 17.2034 21.4393 16.8429 21.0429 16.5969C20.9161 16.5177 20.7517 16.4158 20.6232 16.4377C19.778 16.5817 18.9461 16.6095 18.115 16.3458C18.0132 16.3138 17.853 16.3812 17.7528 16.4512C16.7273 17.163 15.0001 17.0551 14.4044 15.5531C14.2817 15.2439 14.1307 14.9457 13.9772 14.6071C13.5699 15.0611 13.1644 15.4823 12.7948 15.9331C11.9387 16.9777 10.9674 17.8934 9.861 18.66C9.40874 18.9734 9.12587 19.3592 8.98319 19.9194C8.53093 21.697 7.75327 23.3321 6.7795 24.8856C6.12785 25.9251 5.58797 27.0371 5.00556 28.1205C4.54581 28.9764 3.88245 29.6124 3.00882 30.016C2.26036 30.3614 1.39424 30.2106 0.90027 29.6461C0.782618 29.5113 0.698343 29.3117 0.676648 29.1314C0.566506 28.2334 0.951169 27.4668 1.34668 26.7036C2.40137 24.6649 3.8716 22.953 5.46616 21.3389C6.31977 20.4754 7.18837 19.6271 8.04781 18.7695C8.12544 18.6929 8.22222 18.6086 8.24893 18.5109C8.40661 17.933 8.54597 17.35 8.71787 16.6668C7.96771 17.2641 7.17505 17.1815 6.40155 17.0847C5.56044 16.9802 5.22583 16.5623 5.21667 15.6989C5.205 14.5077 5.21166 13.3164 5.21001 12.1252C5.21001 11.7748 5.20833 11.4243 5.20833 11.0739C5.20833 10.5221 5.38771 10.2458 5.74903 10.2365C6.117 10.2273 6.30308 10.4994 6.30308 11.052C6.30308 12.538 6.31726 14.0249 6.29141 15.5101C6.28471 15.9128 6.44494 15.9979 6.79122 16.0367C7.51048 16.1175 8.02615 15.912 8.42248 15.249C9.03661 14.2229 9.63238 13.2027 9.83264 11.9997C9.89022 11.6518 10.0946 11.4783 10.4384 11.501C10.7522 11.5221 10.9808 11.8034 10.9115 12.1682C10.7363 13.089 10.5294 14.0047 10.3124 14.9171C10.118 15.7309 9.89272 16.5362 9.75004 17.3964C10.1372 17.0611 10.5577 16.757 10.9057 16.3846C11.6867 15.548 12.4285 14.6745 13.192 13.8211C13.4022 13.5852 13.5048 13.3485 13.383 13.0241C13.2746 12.736 13.3271 12.4546 13.5291 12.2036C13.5833 12.1362 13.6083 12.025 13.605 11.9348C13.5466 10.1607 13.993 8.46405 14.4094 6.76823C14.658 5.75476 14.9501 4.74639 15.3164 3.77169C15.4866 3.31677 15.8863 2.952 16.1658 2.53584C16.3143 2.31428 16.4186 2.06239 16.5646 1.8383C16.6598 1.69257 16.7724 1.49206 16.9134 1.45416C17.4525 1.30757 18.0023 1.17868 18.5564 1.11297C19.7154 0.976495 20.418 1.70014 20.9954 2.5628C21.34 3.07752 21.4343 3.67902 21.4943 4.30999C21.6754 6.21725 21.3233 8.0445 20.8301 9.86246C20.5122 11.0351 20.2544 12.2289 19.8706 13.3788C19.6486 14.0435 19.2298 14.6408 18.8443 15.372C19.4417 15.34 20.0132 15.3096 20.6032 15.2776C20.6282 13.0814 21.2958 11.0773 21.6729 9.02003C21.9024 7.76817 22.0342 6.49695 22.3037 5.25438C22.5449 4.14236 22.791 3.03372 23.3184 1.98657C23.8866 0.857715 24.8312 0.423861 25.9225 0.224205C26.7286 0.0767789 27.311 0.626046 27.7908 1.20564C28.6803 2.2789 28.989 3.57793 29.1242 4.9351C29.3186 6.89123 28.7587 8.76647 28.5259 10.6763C28.3641 12.0031 27.9936 13.2769 27.4403 14.495C27.3069 14.7899 27.6114 15.3813 27.926 15.4192C28.4225 15.479 28.9223 15.5244 29.4212 15.5379C29.7325 15.5463 29.9327 15.436 29.9736 15.0325C30.0804 13.9609 30.2565 12.8961 30.4059 11.8296C30.4209 11.7234 30.4417 11.6181 30.4693 11.458C30.1388 11.5827 29.8593 11.6948 29.5748 11.7925C29.1776 11.929 28.8955 11.8144 28.7888 11.4875C28.682 11.1607 28.8321 10.9029 29.2185 10.7512C29.3478 10.7007 29.473 10.6207 29.6065 10.6013C30.6578 10.448 31.1093 9.77065 31.3345 8.77909C31.5256 7.93584 31.8886 7.13386 32.1306 6.30068C32.2616 5.84912 32.3158 5.37064 32.37 4.90054C32.4134 4.52566 32.5962 4.29062 32.9183 4.29231C33.237 4.29399 33.499 4.53914 33.4514 4.90477C33.3613 5.59469 33.2504 6.28802 33.0676 6.95694C32.8373 7.80018 32.5269 8.62157 32.2482 9.46062C32.8857 9.27951 33.4815 9.10851 34.0789 8.94339C34.1991 8.91051 34.3242 8.88947 34.4477 8.88187C34.774 8.86251 34.9934 9.0209 35.041 9.34354C35.0919 9.68895 34.9041 9.87849 34.5754 9.9804C33.7426 10.2382 32.9116 10.5036 32.0922 10.8009C31.932 10.8591 31.7467 11.0613 31.7142 11.2255C31.4739 12.4454 31.2369 13.6686 31.0734 14.9011C31.0233 15.2827 31.206 15.6955 31.2778 16.0737C32.4835 15.3223 33.7151 14.5548 34.9567 13.7806C34.3117 13.2592 34.3718 12.9382 35.0168 12.4984C36.0381 11.8009 37.0135 11.0351 38.0031 10.2929C38.2593 10.1009 38.4963 9.88268 38.7466 9.68221C38.9644 9.50866 39.2022 9.27951 39.4884 9.4741C39.7904 9.67884 40.1134 9.89702 40.1309 10.3401C40.1726 11.3923 39.6277 12.1134 38.8325 12.6855C38.4612 12.9525 38.0674 13.1884 37.5901 13.4992C38.1801 13.6576 38.679 13.7874 39.1755 13.9263C39.6694 14.0645 40.1693 14.1901 40.6524 14.3602C41.1055 14.5194 41.3024 14.8775 41.3366 15.3619C41.3725 15.8732 41.2507 16.3265 40.7659 16.5093C39.9515 16.8159 39.1221 17.1158 38.2726 17.2843C37.1178 17.5134 35.938 17.6196 34.7682 17.7712C34.4411 17.8134 34.1674 17.6036 34.144 17.297C34.1165 16.9465 34.29 16.7274 34.633 16.6836C35.4732 16.5758 36.3218 16.5202 37.1554 16.3728C38.0424 16.2161 38.916 15.9844 39.7913 15.7688C39.9607 15.7266 40.1109 15.607 40.2694 15.5228L40.2535 15.4015V15.3989ZM26.5492 13.3762C26.5892 13.3796 26.6285 13.383 26.6685 13.3863C26.8471 12.7326 27.0648 12.0865 27.1959 11.4235C27.3928 10.4235 27.5163 9.40925 27.6932 8.4059C27.9711 6.83139 28.1805 5.26025 27.7157 3.68239C27.4754 2.86691 27.1817 2.08682 26.4641 1.56536C26.3665 1.49459 26.2196 1.45079 26.1003 1.46005C25.8975 1.4769 25.7015 1.56115 25.4987 1.58895C24.9663 1.66308 24.6092 2.06155 24.6409 2.60997C24.7077 3.754 24.7895 4.89803 24.8695 6.0412C24.9229 6.8078 24.8762 7.60309 25.064 8.33599C25.4979 10.0326 26.0469 11.699 26.5492 13.3771V13.3762ZM23.6288 5.1204C23.6004 5.10947 23.572 5.0985 23.5437 5.08757C23.4953 5.29818 23.4394 5.50794 23.3985 5.72106C22.9754 7.95943 22.5415 10.1953 22.141 12.4378C21.9817 13.3299 21.859 14.233 21.7931 15.137C21.743 15.8227 21.9591 16.0914 22.64 16.2144C23.2733 16.329 23.9266 16.3383 24.5716 16.3753C24.7127 16.3838 24.9263 16.3602 24.9914 16.2675C25.3126 15.8143 25.6522 15.3568 25.8608 14.8497C25.9359 14.6669 25.6622 14.34 25.5546 14.0763C25.497 13.934 25.4536 13.7865 25.4069 13.64C25.1541 12.8422 24.8795 12.0511 24.6568 11.2449C24.353 10.1447 24.0234 9.04531 23.8274 7.92405C23.6672 7.00662 23.6872 6.05723 23.6279 5.12209L23.6288 5.1204ZM16.6105 3.96292C16.568 3.95365 16.5263 3.94523 16.4837 3.93596C16.2718 4.4886 15.9889 5.02523 15.8604 5.59638C15.4832 7.27198 15.0902 8.95013 14.8508 10.6476C14.6497 12.0747 14.6831 13.5195 15.3865 14.8657C15.8054 15.6677 15.8512 15.7342 16.7157 15.6433C17.0603 15.607 17.5017 15.1504 17.465 14.8724C17.3949 14.3493 17.3023 13.827 17.2631 13.3013C17.1212 11.3645 16.9944 9.42692 16.87 7.48851C16.8025 6.42787 16.7541 5.36558 16.6906 4.3041C16.684 4.18869 16.6373 4.07581 16.6097 3.96208L16.6105 3.96292ZM18.4404 13.5068C18.4729 13.517 18.5063 13.5262 18.5388 13.5363C18.6423 13.2996 18.7775 13.0713 18.8443 12.8245C19.163 11.64 19.4809 10.4547 19.7638 9.26098C20.075 7.94509 20.4831 6.64186 20.3537 5.25775C20.2869 4.54251 20.4071 3.79443 19.9757 3.14492C19.6294 2.6243 19.2189 2.22077 18.5322 2.26963C18.1275 2.29827 17.7412 2.53078 17.7495 2.75993C17.7604 3.03962 17.7737 3.31846 17.7921 3.5973C17.9181 5.5349 18.0466 7.47335 18.1734 9.41094C18.2627 10.7757 18.3511 12.1413 18.4404 13.506V13.5068ZM7.5789 20.9219L7.43285 20.8192C7.26263 21.0163 7.10244 21.2227 6.92055 21.4088C5.33264 23.0356 3.73059 24.6531 2.61999 26.674C2.29874 27.2579 2.01588 27.8703 1.79059 28.4971C1.62788 28.9486 1.84148 29.1483 2.31877 29.0775C2.46562 29.0556 2.61248 28.9924 2.74348 28.9183C3.27333 28.6176 3.70305 28.2149 4.00511 27.6715C4.87956 26.0978 5.77738 24.5376 6.63518 22.9547C6.99061 22.2993 7.26682 21.6001 7.5789 20.9211V20.9219ZM38.8693 11.1725C38.8401 11.1388 38.81 11.1051 38.7808 11.0722C38.4813 11.3325 38.1809 11.5937 37.8813 11.854C37.9155 11.8927 37.9498 11.9323 37.9839 11.9711C38.2793 11.7049 38.5739 11.4387 38.8693 11.1725Z" fill="white"/>
</g>
<defs>
<clipPath id="clip0_1_231">
<rect width="40.6849" height="30" fill="white" transform="translate(0.657532 0.199951)"/>
</clipPath>
</defs>
</svg>
