<svg width="100" height="33" viewBox="0 0 100 33" fill="none" xmlns="http://www.w3.org/2000/svg">
<path d="M43.1165 17.7699C43.1165 22.3967 39.4437 25.8061 34.9364 25.8061C30.429 25.8061 26.7562 22.3967 26.7562 17.7699C26.7562 13.1105 30.429 9.73364 34.9364 9.73364C39.4437 9.73364 43.1165 13.1105 43.1165 17.7699ZM39.5357 17.7699C39.5357 14.8785 37.407 12.9003 34.9364 12.9003C32.4658 12.9003 30.3372 14.8785 30.3372 17.7699C30.3372 20.6322 32.4658 22.6395 34.9364 22.6395C37.407 22.6395 39.5357 20.6285 39.5357 17.7699Z" fill="white"/>
<path d="M60.762 17.7699C60.762 22.3967 57.0892 25.8061 52.5818 25.8061C48.0745 25.8061 44.4017 22.3967 44.4017 17.7699C44.4017 13.114 48.0745 9.73364 52.5818 9.73364C57.0892 9.73364 60.762 13.1105 60.762 17.7699ZM57.1811 17.7699C57.1811 14.8785 55.0525 12.9003 52.5818 12.9003C50.1113 12.9003 47.9826 14.8785 47.9826 17.7699C47.9826 20.6322 50.1113 22.6395 52.5818 22.6395C55.0525 22.6395 57.1811 20.6285 57.1811 17.7699Z" fill="white"/>
<path d="M77.6727 10.2192V24.6467C77.6727 30.5814 74.1212 33.0054 69.9227 33.0054C65.9705 33.0054 63.5919 30.4003 62.6948 28.2699L65.8125 26.9909C66.3676 28.2988 67.7279 29.8424 69.9191 29.8424C72.6066 29.8424 74.272 28.2083 74.272 25.1322V23.9764H74.147C73.3455 24.951 71.8014 25.8025 69.8529 25.8025C65.7757 25.8025 62.0404 22.3025 62.0404 17.7988C62.0404 13.2626 65.7757 9.73364 69.8529 9.73364C71.7977 9.73364 73.3419 10.5851 74.147 11.5307H74.272V10.2228H77.6727V10.2192ZM74.5257 17.7988C74.5257 14.9692 72.6102 12.9003 70.1727 12.9003C67.7022 12.9003 65.6323 14.9692 65.6323 17.7988C65.6323 20.5996 67.7022 22.6395 70.1727 22.6395C72.6102 22.6395 74.5257 20.5996 74.5257 17.7988Z" fill="white"/>
<path d="M83.2801 1.76245V25.3132H79.7875V1.76245H83.2801Z" fill="white"/>
<path d="M96.8911 20.4144L99.6706 22.2404C98.7735 23.5485 96.6117 25.8021 92.8764 25.8021C88.244 25.8021 84.7845 22.273 84.7845 17.7659C84.7845 12.9869 88.2735 9.72961 92.4757 9.72961C96.7074 9.72961 98.7771 13.0485 99.4536 14.8419L99.825 15.755L88.9242 20.2043C89.7588 21.8166 91.0565 22.639 92.8764 22.639C94.7 22.639 95.9647 21.755 96.8911 20.4144ZM88.336 17.523L95.6228 14.5412C95.222 13.5376 94.0161 12.8384 92.597 12.8384C90.7772 12.8384 88.244 14.4217 88.336 17.523Z" fill="white"/>
<path d="M13.5342 15.6803V12.2708H25.1923C25.3063 12.8651 25.365 13.5679 25.365 14.3288C25.365 16.8868 24.6555 20.0498 22.3688 22.3034C20.1445 24.586 17.3025 25.8034 13.5378 25.8034C6.5599 25.8034 0.692261 20.202 0.692261 13.3252C0.692261 6.44837 6.5599 0.846924 13.5378 0.846924C17.3981 0.846924 20.1481 2.33968 22.2143 4.28533L19.7731 6.69113C18.2915 5.32157 16.2842 4.25635 13.5342 4.25635C8.43858 4.25635 4.45329 8.30344 4.45329 13.3252C4.45329 18.347 8.43858 22.394 13.5342 22.394C16.8393 22.394 18.7217 21.086 19.9275 19.8977C20.9055 18.9338 21.5489 17.5571 21.8025 15.6767L13.5342 15.6803Z" fill="white"/>
</svg>
