<svg width="94" height="16" viewBox="0 0 94 16" fill="none" xmlns="http://www.w3.org/2000/svg">
<path d="M72.888 9.29519H71.2713C71.1461 9.29202 71.0276 9.2416 70.9389 9.15441C70.8503 9.06723 70.7994 8.94986 70.7958 8.82651V8.4516C70.7994 8.32837 70.8503 8.211 70.9389 8.12376C71.0276 8.03657 71.1461 7.98615 71.2713 7.98304H72.6539C72.7797 7.98304 72.9006 7.93364 72.9898 7.84573C73.0791 7.75789 73.1294 7.63867 73.1294 7.51435C73.1294 7.3901 73.0791 7.27088 72.9898 7.18298C72.9006 7.09513 72.7797 7.04573 72.6539 7.04573H71.2587C71.1336 7.04262 71.015 6.9922 70.9264 6.90495C70.8377 6.81777 70.7862 6.7004 70.7833 6.57711V6.2022C70.7862 6.07896 70.8377 5.96154 70.9264 5.87435C71.015 5.78711 71.1336 5.73675 71.2587 5.73358H72.8437C72.9701 5.73358 73.091 5.68423 73.1803 5.59633C73.2695 5.50843 73.3192 5.38926 73.3192 5.26495C73.3192 5.1407 73.2695 5.02148 73.1803 4.93358C73.091 4.84567 72.9701 4.79633 72.8437 4.79633H70.9419C70.8677 4.79483 70.7952 4.81908 70.7371 4.86477C70.6791 4.9104 70.6395 4.97465 70.6246 5.04627L69.6102 9.76381V9.85753C69.6282 9.96705 69.6868 10.0661 69.7749 10.1354C69.8629 10.2047 69.9737 10.2393 70.0856 10.2324H72.8755C73.0018 10.2324 73.1228 10.183 73.212 10.0952C73.3012 10.0073 73.3509 9.88807 73.3509 9.76381C73.3509 9.6395 73.3012 9.52028 73.212 9.43244C73.1228 9.34453 73.0018 9.29519 72.8755 9.29519H72.888Z" fill="white"/>
<path d="M37.6998 4.82764H37.0657C36.9725 4.82877 36.8812 4.85578 36.8029 4.90548C36.7243 4.95518 36.6619 5.02566 36.6219 5.10877L35.2271 8.42045C35.2271 8.42871 35.2235 8.43668 35.2179 8.44255C35.2119 8.44841 35.2039 8.45165 35.1953 8.45165C35.1637 8.45165 35.1637 8.45165 35.1637 8.42045L33.7688 5.10877C33.7349 5.02428 33.6804 4.94919 33.6103 4.89009C33.4835 4.79638 33.325 4.92135 33.2933 5.07758L32.2471 9.85758C32.2389 9.91165 32.25 9.96698 32.2788 10.0138C32.3169 10.0893 32.3755 10.1528 32.4485 10.197C32.5213 10.2412 32.6053 10.2643 32.691 10.2637H32.8811C33.0041 10.2575 33.1199 10.2057 33.2058 10.1188C33.2917 10.0319 33.3408 9.91632 33.344 9.79506V6.73339C33.344 6.72506 33.3475 6.71716 33.3532 6.71129C33.3592 6.70542 33.3671 6.70213 33.3757 6.70213C33.3843 6.70213 33.3922 6.70542 33.3982 6.71129C33.4039 6.71716 33.4074 6.72506 33.4074 6.73339L34.7071 9.95129C34.7417 10.0382 34.8032 10.1122 34.8828 10.1627C34.9626 10.2131 35.0565 10.2376 35.151 10.2325H35.2778C35.371 10.2313 35.4623 10.2043 35.5406 10.1546C35.6192 10.1049 35.6816 10.0345 35.7216 9.95129L37.0213 6.76464C37.0213 6.75632 37.0249 6.74841 37.0305 6.74255C37.0365 6.73668 37.0445 6.73339 37.0531 6.73339C37.0616 6.73339 37.0695 6.73668 37.0756 6.74255C37.0813 6.74841 37.0847 6.75632 37.0847 6.76464V9.79506C37.0879 9.91835 37.1389 10.0358 37.2277 10.123C37.3162 10.2102 37.435 10.2606 37.5602 10.2637H37.7505C37.8757 10.2606 37.9946 10.2102 38.083 10.123C38.1718 10.0358 38.2228 9.91835 38.226 9.79506V5.29626C38.2041 5.17129 38.1407 5.05722 38.0453 4.97219C37.9496 4.88722 37.8282 4.83632 37.6998 4.82764Z" fill="white"/>
<path d="M52.2187 7.35816H50.8238C50.7062 7.35816 50.5934 7.40426 50.51 7.4863C50.4267 7.56828 50.3801 7.67953 50.3801 7.79558C50.3801 7.91157 50.4267 8.02277 50.51 8.10486C50.5934 8.18684 50.7062 8.23294 50.8238 8.23294H51.0775C51.3311 8.23294 51.5847 8.45163 51.4578 8.70157C51.2677 9.10774 50.8873 9.32636 50.2849 9.32636C49.3973 9.32636 48.8584 8.67031 48.8584 7.54564C48.8584 6.42091 49.429 5.76486 50.2849 5.76486C50.4834 5.75474 50.6812 5.7954 50.859 5.88307C51.0369 5.97067 51.1884 6.10217 51.2993 6.26468C51.3488 6.35576 51.4217 6.43253 51.5108 6.48732C51.5999 6.54211 51.7017 6.57307 51.8066 6.57714H52.0919C52.1559 6.58223 52.2206 6.57193 52.2796 6.54702C52.3389 6.52211 52.3908 6.48336 52.4314 6.43414C52.472 6.38492 52.4999 6.32672 52.5126 6.2645C52.5253 6.20235 52.5221 6.13804 52.504 6.07726C52.3062 5.66762 51.9901 5.32468 51.5955 5.09127C51.2005 4.85786 50.7449 4.74438 50.2849 4.7651C48.8267 4.7651 47.7171 5.79606 47.7171 7.54564C47.7171 9.29516 48.7632 10.3261 50.3166 10.3261C51.7115 10.3261 52.6943 9.45133 52.6943 8.04552V7.82678C52.6955 7.76492 52.6841 7.70336 52.6606 7.64594C52.6372 7.58851 52.6023 7.53636 52.5579 7.49259C52.5135 7.44881 52.4606 7.41432 52.4023 7.39127C52.344 7.36816 52.2815 7.3569 52.2187 7.35816Z" fill="white"/>
<path d="M43.9762 5.14003C43.9436 5.04937 43.8837 4.97075 43.8044 4.91488C43.7249 4.85901 43.6301 4.82853 43.5324 4.82764H42.7082C42.6105 4.82853 42.5158 4.85901 42.4362 4.91488C42.357 4.97075 42.297 5.04937 42.2644 5.14003L40.6793 9.63889C40.6555 9.70919 40.6489 9.78404 40.6596 9.8574C40.6704 9.93075 40.6986 10.0006 40.7417 10.0613C40.7849 10.1221 40.8419 10.172 40.9082 10.2072C40.9741 10.2423 41.048 10.2616 41.1231 10.2637H41.3767C41.4744 10.2628 41.5692 10.2323 41.6487 10.1764C41.728 10.1206 41.7879 10.0419 41.8205 9.95129L42.0108 9.3577C42.0434 9.26704 42.1034 9.18841 42.1826 9.13255C42.2622 9.07668 42.357 9.0462 42.4546 9.0453H43.7543C43.852 9.0462 43.9468 9.07668 44.0263 9.13255C44.1056 9.18841 44.1655 9.26704 44.1981 9.3577L44.3884 9.95129C44.421 10.0419 44.481 10.1206 44.5602 10.1764C44.6398 10.2323 44.7346 10.2628 44.8322 10.2637H45.0858C45.1609 10.2616 45.2348 10.2423 45.3007 10.2072C45.367 10.172 45.424 10.1221 45.4671 10.0613C45.5102 10.0006 45.5385 9.93075 45.5493 9.8574C45.5601 9.78404 45.5534 9.70919 45.5296 9.63889L43.9762 5.14003ZM43.171 8.10806H43.0759C43.0008 8.10596 42.927 8.08662 42.8607 8.05147C42.7947 8.01632 42.7377 7.96638 42.6946 7.90566C42.6514 7.84488 42.6232 7.77506 42.6125 7.70171C42.6017 7.62836 42.6083 7.5535 42.6321 7.48321L43.1076 6.04602C43.1076 6.03776 43.1111 6.02979 43.1168 6.02392C43.1228 6.01812 43.1308 6.01482 43.1393 6.01482C43.1479 6.01482 43.1558 6.01812 43.1619 6.02392C43.1675 6.02979 43.171 6.03776 43.171 6.04602L43.6465 7.48321C43.6637 7.55572 43.6646 7.63105 43.6491 7.70392C43.6339 7.7768 43.6022 7.84548 43.5568 7.90506C43.5115 7.96458 43.4535 8.01368 43.3869 8.04877C43.32 8.0838 43.2465 8.10404 43.171 8.10806Z" fill="white"/>
<path d="M55.896 4.82764H55.6741C55.5489 4.83075 55.43 4.88117 55.3416 4.96842C55.2528 5.0556 55.2018 5.17297 55.1986 5.29626V9.79506C55.2018 9.91835 55.2528 10.0358 55.3416 10.123C55.43 10.2102 55.5489 10.2606 55.6741 10.2637H55.896C56.0212 10.2606 56.1401 10.2102 56.2286 10.123C56.3173 10.0358 56.3683 9.91835 56.3715 9.79506V5.29626C56.3633 5.17458 56.3107 5.06003 56.2232 4.97386C56.1356 4.88764 56.0193 4.83572 55.896 4.82764Z" fill="white"/>
<path d="M61.4441 5.76485C61.6573 5.75904 61.8692 5.80778 62.0579 5.90634C62.2465 6.00484 62.4064 6.14987 62.5219 6.32718C62.5627 6.43598 62.6363 6.52999 62.7321 6.59694C62.8285 6.66383 62.9429 6.70053 63.0609 6.70209H63.2824C63.3465 6.70724 63.4112 6.69688 63.4704 6.67197C63.5297 6.64706 63.5812 6.60832 63.6219 6.55916C63.6627 6.50987 63.6908 6.45167 63.7034 6.38952C63.7159 6.3273 63.713 6.26305 63.6944 6.20221C63.3776 5.26496 62.5219 4.73389 61.4124 4.73389C59.9537 4.73389 58.8441 5.73359 58.8441 7.51437C58.8441 9.29515 59.9219 10.2949 61.4124 10.2949C62.5848 10.2949 63.3776 9.67005 63.6627 8.88904C63.6812 8.8282 63.6842 8.76395 63.6716 8.70173C63.6591 8.63958 63.6309 8.58137 63.5902 8.53215C63.5495 8.48293 63.498 8.44419 63.4387 8.41928C63.3794 8.39437 63.3147 8.38401 63.2507 8.38916H62.9974C62.8818 8.39922 62.771 8.43916 62.6764 8.50502C62.5818 8.57083 62.5064 8.66023 62.4585 8.76407C62.3525 8.94299 62.1992 9.08993 62.0147 9.18904C61.8303 9.2882 61.6219 9.33574 61.4124 9.3264C60.5878 9.3264 60.0171 8.70155 60.0171 7.54562C60.0171 6.38969 60.5878 5.76485 61.4441 5.76485Z" fill="white"/>
<path d="M77.865 4.82764H76.3752C76.2501 4.83075 76.1309 4.88117 76.0429 4.96842C75.9536 5.0556 75.9027 5.17297 75.8997 5.29626V9.79506C75.9027 9.91835 75.9536 10.0358 76.0429 10.123C76.1309 10.2102 76.2501 10.2606 76.3752 10.2637H77.865C79.5453 10.2637 80.5596 9.23273 80.5596 7.54566C80.5596 5.85859 79.5135 4.82764 77.865 4.82764ZM77.8015 9.26398H77.5483C77.4231 9.26081 77.3039 9.21039 77.2153 9.12321C77.1267 9.03596 77.0758 8.91865 77.0728 8.79536V6.26476C77.0758 6.14147 77.1267 6.0241 77.2153 5.93686C77.3039 5.84967 77.4231 5.79931 77.5483 5.79614H77.8015C78.8477 5.79614 79.3866 6.32722 79.3866 7.5144C79.3866 8.70159 78.8477 9.26398 77.8015 9.26398Z" fill="white"/>
<path d="M86.2666 9.29525H84.6498C84.5241 9.29208 84.4055 9.24166 84.3169 9.15447C84.2283 9.06728 84.1774 8.94992 84.1738 8.82657V8.45172C84.1774 8.32842 84.2283 8.21106 84.3169 8.12381C84.4055 8.03663 84.5241 7.98621 84.6498 7.98309H86.0444C86.1708 7.98309 86.2911 7.93369 86.381 7.84579C86.4696 7.75794 86.5199 7.63872 86.5199 7.51441C86.5199 7.39016 86.4696 7.27094 86.381 7.18309C86.2911 7.09519 86.1708 7.04579 86.0444 7.04579H84.6498C84.5241 7.04267 84.4055 6.99225 84.3169 6.90507C84.2283 6.81782 84.1774 6.70046 84.1738 6.57717V6.20232C84.1774 6.07902 84.2283 5.9616 84.3169 5.87441C84.4055 5.78716 84.5241 5.73681 84.6498 5.73363H86.2348C86.3606 5.73363 86.4816 5.68429 86.5708 5.59639C86.66 5.50848 86.7103 5.38932 86.7103 5.26507C86.7103 5.14076 86.66 5.02154 86.5708 4.93369C86.4816 4.84579 86.3606 4.79639 86.2348 4.79639H83.4768C83.3516 4.79956 83.2324 4.84992 83.1438 4.93717C83.0552 5.02435 83.0043 5.14172 83.0013 5.26507V9.76387C83.0043 9.88717 83.0552 10.0045 83.1438 10.0917C83.2324 10.179 83.3516 10.2293 83.4768 10.2325H86.2666C86.3917 10.2293 86.5103 10.179 86.5989 10.0917C86.6875 10.0045 86.7384 9.88717 86.742 9.76387C86.7432 9.70196 86.7318 9.64046 86.7085 9.58303C86.6845 9.52555 86.6498 9.47339 86.6055 9.42962C86.5612 9.38585 86.5079 9.35142 86.4498 9.3283C86.3917 9.30519 86.3288 9.29393 86.2666 9.29525Z" fill="white"/>
<path d="M93.4303 4.82764H93.2087C93.0836 4.83075 92.9644 4.88117 92.8758 4.96842C92.7871 5.0556 92.7362 5.17297 92.7332 5.29626V8.20171C92.7332 8.23297 92.7333 8.23297 92.7015 8.23297H92.6698L90.4506 5.04632C90.4075 4.9868 90.3506 4.93853 90.2841 4.9059C90.2177 4.87321 90.144 4.85704 90.0704 4.85889H89.7722C89.647 4.86201 89.5279 4.91243 89.4398 4.99961C89.3506 5.08686 89.2997 5.20416 89.2967 5.32752V9.82632C89.2997 9.94961 89.3506 10.067 89.4398 10.1542C89.5279 10.2414 89.647 10.2918 89.7722 10.2949H89.9937C90.1195 10.2918 90.238 10.2414 90.3267 10.1542C90.4153 10.067 90.4662 9.94961 90.4698 9.82632V6.88961C90.4698 6.88129 90.4728 6.87338 90.4788 6.86752C90.4847 6.86165 90.4925 6.85836 90.5015 6.85836H90.5326L92.7835 10.045C92.8267 10.1045 92.8841 10.1528 92.95 10.1854C93.0165 10.2181 93.0901 10.2343 93.1644 10.2325H93.4494C93.5746 10.2293 93.6937 10.1789 93.7818 10.0917C93.871 10.0045 93.9219 9.88716 93.9249 9.76386V5.265C93.9033 5.14836 93.8434 5.04207 93.7536 4.96291C93.6638 4.88368 93.5506 4.83608 93.4303 4.82764Z" fill="white"/>
<path d="M18.5614 3.8372L20.0292 5.56175C20.1972 5.75546 20.3462 5.9148 20.4064 6.0054C20.8454 6.44163 21.0915 7.03121 21.0912 7.64558C21.05 8.37037 20.5776 8.86402 20.1402 9.39199L19.113 10.598L18.5773 11.2228C18.5581 11.2443 18.5457 11.2709 18.5416 11.2994C18.5376 11.3278 18.5421 11.3567 18.5546 11.3826C18.567 11.4086 18.5869 11.4303 18.6118 11.4452C18.6367 11.4601 18.6654 11.4675 18.6945 11.4665H24.0489C24.8668 11.4665 25.8971 12.1538 25.8369 13.1973C25.8352 13.6715 25.6433 14.1259 25.303 14.4613C24.9627 14.7967 24.5017 14.9858 24.0204 14.9874H15.6354C15.0838 14.9874 13.6002 15.0468 13.1849 13.7815C13.0966 13.5171 13.0845 13.2337 13.15 12.9629C13.2707 12.5626 13.4617 12.1861 13.7143 11.8507C14.1359 11.2259 14.5924 10.601 15.0426 9.99498C15.6227 9.20139 16.2187 8.43289 16.8052 7.62373C16.826 7.59738 16.8373 7.56492 16.8373 7.53157C16.8373 7.49816 16.826 7.46576 16.8052 7.43941L14.6748 4.94001C14.6609 4.92193 14.643 4.9072 14.6223 4.89708C14.6017 4.88702 14.579 4.88175 14.556 4.88175C14.5329 4.88175 14.5102 4.88702 14.4896 4.89708C14.469 4.9072 14.4509 4.92193 14.437 4.94001C13.8664 5.69923 11.3684 9.06085 10.8358 9.74193C10.3032 10.423 8.99082 10.4605 8.26483 9.74193L4.93303 6.44588C4.91178 6.42486 4.88459 6.41049 4.85501 6.40468C4.82549 6.39887 4.79483 6.40187 4.76698 6.41325C4.73908 6.42462 4.71531 6.44391 4.6986 6.46858C4.6819 6.49331 4.67303 6.52241 4.67309 6.55211V12.8911C4.68088 13.3409 4.54579 13.7819 4.28651 14.1522C4.02728 14.5225 3.65698 14.8037 3.22746 14.9562C2.95306 15.0503 2.65979 15.0784 2.37206 15.0382C2.08437 14.9979 1.81063 14.8904 1.57364 14.7247C1.33664 14.5591 1.14326 14.3399 1.00964 14.0856C0.876051 13.8313 0.80605 13.5492 0.805511 13.2629V1.86583C0.824625 1.4551 0.974577 1.06077 1.23408 0.738845C1.49359 0.416917 1.84943 0.183785 2.25109 0.0725459C2.59562 -0.0179032 2.95828 -0.0169989 3.30231 0.0751807C3.64639 0.167336 3.95962 0.347522 4.21022 0.597426L9.33315 5.65235C9.34848 5.66768 9.36704 5.67953 9.38758 5.68702C9.40806 5.6945 9.42998 5.6975 9.45178 5.6957C9.47351 5.6939 9.49465 5.68744 9.51363 5.67672C9.53255 5.66594 9.54884 5.65127 9.56142 5.63361L13.2007 0.669258C13.3689 0.467737 13.5797 0.304887 13.8185 0.192091C14.0573 0.0793005 14.3182 0.0193185 14.5829 0.0163125H24.0489C24.3079 0.0167556 24.564 0.0716596 24.7997 0.177414C25.0355 0.283204 25.2457 0.437366 25.4161 0.629606C25.5866 0.821839 25.7134 1.04774 25.7882 1.29219C25.8629 1.53664 25.8839 1.79399 25.8496 2.04703C25.7829 2.486 25.5569 2.88624 25.2135 3.17349C24.8701 3.46073 24.4327 3.61552 23.9823 3.60917H18.6819C18.6552 3.60977 18.6293 3.61744 18.6066 3.63133C18.5841 3.64522 18.5656 3.66486 18.5533 3.6881C18.5411 3.71139 18.5353 3.73756 18.5367 3.76373C18.5381 3.78995 18.5467 3.81534 18.5614 3.8372Z" fill="white"/>
</svg>
