<svg width="101" height="18" viewBox="0 0 101 18" fill="none" xmlns="http://www.w3.org/2000/svg">
<path d="M0.924683 17.5204L1.72864 14.1035H9.91175L10.3712 13.7303L10.5722 12.9263L10.3138 12.6104H4.65734L2.44646 9.7392L3.19299 6.49463L5.97813 4.22632H16.085L15.2811 7.64314H7.49991L7.01179 8.01641L6.83951 8.82035L7.09793 9.1362H12.7543L14.9652 12.0075L14.2187 15.2521L11.4049 17.5204H0.924683Z" fill="white"/>
<path d="M18.899 17.5204L21.1673 7.64314H16.3148L17.1188 4.22632H30.987L30.2118 7.64314H25.3593L23.0623 17.5204H18.899Z" fill="white"/>
<path d="M29.0634 17.5204L32.1356 4.22632H44.3098L43.5059 7.64314H35.5237L35.1504 9.25103H41.0366L40.3187 12.2946H34.4326L34.0306 14.1035H42.2138L41.4098 17.5204H29.0634Z" fill="white"/>
<path d="M55.7664 4.22632H45.516L42.4437 17.5204H46.6358L47.3823 14.1897H53.8714L56.7714 11.8352L57.8912 6.98273L55.7664 4.22632ZM52.9813 10.1986L52.2922 10.7728H48.215L48.9328 7.64314H53.0675L53.4694 8.15994L52.9813 10.1986Z" fill="white"/>
<path d="M61.308 17.5204L64.3802 4.22632H70.2948L72.3336 12.9837H72.9077L74.9465 4.22632H78.8512L75.7506 17.5204H69.8356L67.7971 8.76294H67.1941L65.1842 17.5204H61.308Z" fill="white"/>
<path fill-rule="evenodd" clip-rule="evenodd" d="M61.7384 0.00537109L58.2928 6.40832L60.676 6.37961L60.475 10.4568L63.5473 4.22615H61.2503L61.7384 0.00537109Z" fill="white"/>
<path fill-rule="evenodd" clip-rule="evenodd" d="M83.3878 9.39461C83.3878 9.19359 83.2157 9.05005 83.0436 9.05005H80.2872C80.0858 9.05005 79.9423 9.22229 79.9423 9.39461C79.9423 9.59556 80.1144 9.73916 80.2872 9.73916H83.0436C83.2443 9.73916 83.3878 9.56685 83.3878 9.39461Z" fill="white"/>
<path fill-rule="evenodd" clip-rule="evenodd" d="M85.7135 12.4095C85.7135 12.2085 85.5414 12.0649 85.3693 12.0649H82.6128C82.4115 12.0649 82.2679 12.2372 82.2679 12.4095C82.2679 12.6105 82.4401 12.7541 82.6128 12.7541H85.3693C85.5414 12.7541 85.7135 12.6105 85.7135 12.4095Z" fill="white"/>
<path fill-rule="evenodd" clip-rule="evenodd" d="M84.9098 10.9163C84.9098 11.1173 84.7377 11.2609 84.5656 11.2609H81.522C81.3207 11.2609 81.1771 11.0886 81.1771 10.9163C81.1771 10.7153 81.3492 10.5717 81.522 10.5717H84.5656C84.7662 10.543 84.9098 10.7153 84.9098 10.9163Z" fill="white"/>
<path fill-rule="evenodd" clip-rule="evenodd" d="M80.459 10.543C80.2584 10.543 80.1141 10.7153 80.1141 10.8875C80.1141 11.0885 80.2869 11.2321 80.459 11.2321H80.6026C80.8033 11.2321 80.9475 11.0598 80.9475 10.8875C80.9475 10.6866 80.7747 10.543 80.6026 10.543H80.459Z" fill="white"/>
<path fill-rule="evenodd" clip-rule="evenodd" d="M86.8904 13.9311C86.8904 13.7302 86.7183 13.5865 86.5462 13.5865H80.6312C80.4305 13.5865 80.287 13.7589 80.287 13.9311C80.287 14.1321 80.4591 14.2757 80.6312 14.2757H86.5462C86.7469 14.2757 86.8904 14.1321 86.8904 13.9311Z" fill="white"/>
<path fill-rule="evenodd" clip-rule="evenodd" d="M97.8016 13.5291C96.7111 13.0984 96.1941 12.8401 95.7349 13.2421C95.9642 12.7826 95.8785 12.7539 95.6771 12.4381C95.3036 11.7777 94.2989 10.6866 93.9546 8.59055C93.9546 8.59055 94.5002 7.09749 94.5574 6.14998C94.5574 6.14998 94.7581 5.547 93.8397 5.83413C93.8397 5.83413 92.6621 6.55196 92.0308 6.72423C90.8819 6.58066 89.188 5.748 88.5567 4.48464C88.5567 4.48464 89.073 3.39355 88.6138 3.13513C88.2982 2.96285 87.3506 3.93909 87.3506 3.93909L84.2785 7.49947L84.0485 7.93015C83.9621 8.10246 83.9621 8.33212 84.1057 8.53314C84.9098 9.62423 88.0968 13.845 89.9349 16.1133C84.7376 16.1421 81.924 16.946 83.9336 17.2331C85.5703 17.4628 89.2458 17.4054 92.0308 17.3767C92.3751 17.4915 92.72 17.5776 93.0927 17.6064L97.8016 17.6351C98.405 17.6064 98.9506 17.5489 99.4098 17.5202C99.6968 17.4915 99.9553 17.2906 100.042 17.0321C100.558 15.7113 99.7546 14.3044 97.8016 13.5291ZM89.4465 13.041L89.5615 10.945H88.3268L90.0785 7.64307L89.82 9.79647H90.9968L89.4465 13.041Z" fill="white"/>
</svg>
